<?xml version="1.0" encoding="UTF-8" standalone="no"?>
<!-- Created with Inkscape (http://www.inkscape.org/) -->

<svg
   width="390.10999mm"
   height="120mm"
   viewBox="0 0 390.10999 120.00001"
   version="1.1"
   id="svg1"
   xml:space="preserve"
   inkscape:version="1.3.2 (091e20ef0f, 2023-11-25)"
   sodipodi:docname="flags.svg"
   xmlns:inkscape="http://www.inkscape.org/namespaces/inkscape"
   xmlns:sodipodi="http://sodipodi.sourceforge.net/DTD/sodipodi-0.dtd"
   xmlns="http://www.w3.org/2000/svg"
   xmlns:svg="http://www.w3.org/2000/svg"><sodipodi:namedview
     id="namedview1"
     pagecolor="#ffffff"
     bordercolor="#000000"
     borderopacity="0.25"
     inkscape:showpageshadow="2"
     inkscape:pageopacity="0.0"
     inkscape:pagecheckerboard="0"
     inkscape:deskcolor="#d1d1d1"
     inkscape:document-units="mm"
     inkscape:zoom="0.74545344"
     inkscape:cx="1199.2701"
     inkscape:cy="299.81752"
     inkscape:window-width="1440"
     inkscape:window-height="891"
     inkscape:window-x="0"
     inkscape:window-y="0"
     inkscape:window-maximized="1"
     inkscape:current-layer="svg1" /><defs
     id="defs1"><inkscape:path-effect
       effect="mirror_symmetry"
       start_point="82.73229,219.12112"
       end_point="82.73229,269.77911"
       center_point="82.73229,244.45011"
       id="path-effect1"
       is_visible="true"
       lpeversion="1.2"
       lpesatellites=""
       mode="free"
       discard_orig_path="false"
       fuse_paths="false"
       oposite_fuse="false"
       split_items="false"
       split_open="false"
       link_styles="false" /></defs><g
     inkscape:label="Layer 1"
     inkscape:groupmode="layer"
     id="layer1"
     transform="translate(1.9593686,-4.1397843)"><g
       id="g7"
       transform="translate(-6.5725182,-7.7653157)"><path
         id="rect1-5"
         style="fill:#5bcefa;stroke-width:0.163995"
         d="M 90.676317,11.905102 150.63026,131.9051 H 64.567094 L 4.6131496,11.905102 Z"
         sodipodi:nodetypes="ccccc" /><path
         id="rect2-4"
         style="fill:#f5a9b8;stroke-width:0.163995"
         d="M 73.463685,11.905102 133.41763,131.9051 H 81.779727 L 21.825783,11.905102 Z"
         sodipodi:nodetypes="ccccc" /><path
         id="rect3-7"
         style="fill:#ffffff;stroke-width:0.163995"
         d="M 56.251052,11.905102 116.205,131.9051 H 98.992327 L 39.038418,11.905102 Z"
         sodipodi:nodetypes="ccccc" /><path
         fill="#d42c00"
         d="M 186.30206,11.905102 246.2556,131.9051 H 227.13045 L 167.17691,11.905102 Z"
         id="path1"
         sodipodi:nodetypes="ccccc"
         style="stroke-width:17.4929" /><path
         fill="#fd9855"
         d="M 167.17693,11.905102 227.13047,131.9051 H 208.00542 L 148.05188,11.905102 Z"
         id="path2"
         sodipodi:nodetypes="ccccc"
         style="stroke-width:17.4929" /><path
         fill="#ffffff"
         d="M 148.05178,11.905102 208.00532,131.9051 H 188.88053 L 128.92663,11.905102 Z"
         id="path3-6"
         sodipodi:nodetypes="ccccc"
         style="stroke-width:17.4929" /><path
         fill="#d161a2"
         d="M 128.92663,11.905102 188.88057,131.9051 H 169.75538 L 109.80148,11.905102 Z"
         id="path4"
         sodipodi:nodetypes="ccccc"
         style="stroke-width:17.4929" /><path
         fill="#a20161"
         d="M 109.80148,11.905102 169.75542,131.9051 H 150.63023 L 90.67633,11.905102 Z"
         id="path5"
         sodipodi:nodetypes="ccccc"
         style="stroke-width:17.4929" /><path
         id="rect1"
         style="fill:#340c46;stroke-width:0.129647"
         d="M 246.23135,131.9051 186.30312,11.905103 h 23.97181 L 270.20315,131.9051 Z"
         sodipodi:nodetypes="ccccc" /><path
         id="rect2"
         style="fill:#e50051;stroke-width:0.129647"
         d="M 270.20315,131.9051 210.27493,11.905103 h 23.9718 L 294.17496,131.9051 Z"
         sodipodi:nodetypes="ccccc" /><path
         id="rect3"
         style="fill:#009fe3;stroke-width:0.129647"
         d="M 294.17366,131.9051 234.24544,11.905103 h 23.97181 L 318.14547,131.9051 Z"
         sodipodi:nodetypes="ccccc" /><path
         id="rect7"
         style="fill:#e4d7b1;stroke-width:0.1905"
         d="m 258.21725,11.9051 h 76.57756 l 59.92822,120 h -76.57756 z"
         sodipodi:nodetypes="ccccc" /><polygon
         points="0,555.59 370.39,185.2 185.2,0 0,0 "
         style="fill:#ffffff"
         id="polygon3"
         transform="matrix(0,0.12985747,-0.12943741,0,258.21725,11.905107)" /><path
         d="m 245.95694,23.542933 v 0 c -3.09226,-3.102295 -8.10796,-3.102295 -11.20022,0 l -0.49445,0.496056 v 0 c 0,0 -0.52681,-0.52852 -0.52681,-0.52852 -3.09226,-3.102295 -8.10796,-3.102295 -11.20022,0 v 0 c -3.09226,3.102295 -3.09226,8.134272 0,11.236567 l 0.52681,0.52852 11.20022,11.236567 0.10225,0.102587 11.06949,-11.309287 0.0298,-0.02987 0.49445,-0.496056 c 3.09226,-3.102295 3.09226,-8.134272 0,-11.236567 z"
         style="fill:#fcbf00;stroke-width:0.129647"
         id="path3" /><path
         style="fill:#155c29;fill-opacity:1;stroke-width:0.1905"
         d="m 82.73229,219.12112 v 50.48958 l -3.349567,0.16841 c 2.620787,-8.86087 0.713104,-16.20058 -1.558958,-17.99543 -5.554771,-0.001 -10.99967,-0.84073 -16.289248,-2.8647 5.668915,-0.41698 11.255644,-0.85178 13.013835,-2.11656 -3.982067,-0.39144 -7.587387,-2.14959 -10.981721,-3.82415 5.013136,-0.1408 10.449619,-0.0817 14.326633,-1.41842 -4.336791,-0.43798 -7.58559,-1.95295 -10.689283,-3.61155 5.000507,-0.24332 9.377787,-0.69658 10.744521,-2.16396 -3.979514,-0.83196 -5.202123,-1.23699 -6.664958,-1.67922 7.962158,-3.7883 8.790622,-10.51897 11.448746,-14.984 z m 0,0 v 50.48958 l 3.349567,0.16841 c -2.620787,-8.86087 -0.713104,-16.20058 1.558958,-17.99543 5.554771,-0.001 10.99967,-0.84073 16.289245,-2.8647 -5.668912,-0.41698 -11.255641,-0.85178 -13.013832,-2.11656 3.982067,-0.39144 7.587387,-2.14959 10.981722,-3.82415 -5.013137,-0.1408 -10.44962,-0.0817 -14.326634,-1.41842 4.336791,-0.43798 7.58559,-1.95295 10.689283,-3.61155 -5.000507,-0.24332 -9.377787,-0.69658 -10.744521,-2.16396 3.979514,-0.83196 5.202123,-1.23699 6.664958,-1.67922 -7.962158,-3.7883 -8.790622,-10.51897 -11.448746,-14.984 z"
         id="path1-9"
         inkscape:path-effect="#path-effect1"
         inkscape:original-d="m 82.73229,219.12112 v 50.48958 l -3.349567,0.16841 c 2.620787,-8.86087 0.713104,-16.20058 -1.558958,-17.99543 -5.554771,-0.001 -10.99967,-0.84073 -16.289248,-2.8647 5.668915,-0.41698 11.255644,-0.85178 13.013835,-2.11656 -3.982067,-0.39144 -7.587387,-2.14959 -10.981721,-3.82415 5.013136,-0.1408 10.449619,-0.0817 14.326633,-1.41842 -4.336791,-0.43798 -7.58559,-1.95295 -10.689283,-3.61155 5.000507,-0.24332 9.377787,-0.69658 10.744521,-2.16396 -3.979514,-0.83196 -5.202123,-1.23699 -6.664958,-1.67922 7.962158,-3.7883 8.790622,-10.51897 11.448746,-14.984 z"
         sodipodi:nodetypes="cccccccccccc"
         transform="translate(242.20815,-173.61824)" /><path
         style="fill:#ffffff;stroke-width:2.47345"
         d="m 258.21725,35.954706 23.97181,-24.049603 -23.97181,4e-6 v 24.049599"
         id="path6" /></g></g><path
     inkscape:connector-curvature="0"
     id="path4820"
     d="m 286.40578,37.750072 1.3152,-4.15435 -3.29009,-2.93012 h 4.31961 l 1.44698,-4.23334 1.41021,4.23334 h 4.45133 l -3.40318,2.93012 1.25367,4.15435 -3.71203,-2.48394 z"
     fill="#000081"
     sodipodi:nodetypes="cccccccccccc" /></svg>
