<?xml version="1.0" encoding="UTF-8" standalone="no"?>
<svg
   height="385.02658"
   viewBox="0 0 503.36191 385.02658"
   width="503.36191"
   version="1.1"
   id="svg8"
   sodipodi:docname="output_fonts.svg"
   inkscape:version="1.3.2 (091e20e, 2023-11-25)"
   xmlns:inkscape="http://www.inkscape.org/namespaces/inkscape"
   xmlns:sodipodi="http://sodipodi.sourceforge.net/DTD/sodipodi-0.dtd"
   xmlns="http://www.w3.org/2000/svg"
   xmlns:svg="http://www.w3.org/2000/svg">
  <defs
     id="defs8" />
  <sodipodi:namedview
     id="namedview8"
     pagecolor="#ffffff"
     bordercolor="#000000"
     borderopacity="0.25"
     inkscape:showpageshadow="2"
     inkscape:pageopacity="0.0"
     inkscape:pagecheckerboard="0"
     inkscape:deskcolor="#d1d1d1"
     inkscape:zoom="1.3518849"
     inkscape:cx="289.96551"
     inkscape:cy="200.8307"
     inkscape:window-width="1680"
     inkscape:window-height="1022"
     inkscape:window-x="0"
     inkscape:window-y="28"
     inkscape:window-maximized="0"
     inkscape:current-layer="svg8" />
  <rect
     fill="#ffffff"
     height="380.02658"
     width="498.36191"
     x="2.5"
     y="2.4999993"
     id="rect1"
     style="stroke-width:1" />
  <path
     d="m 35.430946,30.513283 v 21 m 14,-21 v 21 m -14,-11 h 14 m 7,3 h 12 v -2 l -1,-2 -1,-1 -2,-1 h -3 l -2,1 -2,2 -1,3 v 2 l 1,3 2,2 2,1 h 3 l 2,-1 2,-2 m 7,-11 v 14 m 0,-8 1,-3 2,-2 2,-1 h 3 m 15,3 -1,-2 -3,-1 h -3 l -3,1 -1,2 1,2 2,1 5,1 2,1 1,2 v 1 l -1,2 -3,1 h -3 l -3,-1 -1,-2 m 18.000004,-18 v 21 m 0,-10 3,-3 2,-1 h 3 l 2,1 1,3 v 10 m 7,-8 h 12 v -2 l -1,-2 -1,-1 -2,-1 h -3 l -2,1 -2,2 -1,3 v 2 l 1,3 2,2 2,1 h 3 l 2,-1 2,-2 m 5,-11 6,14 m 6,-14 -6,14 -2,4 -2,2 -2,1 h -1 m 35,-28 v 21 m 0,-21 h 9 l 3,1 1,1 1,2 v 2 l -1,2 -1,1 -3,1 h -9 m 7,0 7,11 m 11,-14 -2,1 -2,2 -1,3 v 2 l 1,3 2,2 2,1 h 3 l 2,-1 2,-2 1,-3 v -2 l -1,-3 -2,-2 -2,-1 h -3 m 15,0 v 14 m 0,-10 3,-3 2,-1 h 3 l 2,1 1,3 v 10 m 0,-10 3,-3 2,-1 h 3 l 2,1 1,3 v 10 m 19,-14 v 14 m 0,-11 -2,-2 -2,-1 h -3 l -2,1 -2,2 -1,3 v 2 l 1,3 2,2 2,1 h 3 l 2,-1 2,-2 m 8,-11 v 14 m 0,-10 3,-3 2,-1 h 3 l 2,1 1,3 v 10 m 37,-18 -2,-2 -3,-1 h -4 l -3,1 -2,2 v 2 l 1,2 1,1 2,1 6,2 2,1 1,1 1,2 v 3 l -2,2 -3,1 h -4 l -3,-1 -2,-2 m 20,-18 1,1 1,-1 -1,-1 -1,1 m 1,7 v 14 m 8,-14 v 14 m 0,-10 3,-3 2,-1 h 3 l 2,1 1,3 v 10 m 0,-10 3,-3 2,-1 h 3 l 2,1 1,3 v 10 m 8,-14 v 21 m 0,-18 2,-2 2,-1 h 3 l 2,1 2,2 1,3 v 2 l -1,3 -2,2 -2,1 h -3 l -2,-1 -2,-2 m 19,-18 v 21 m 7,-8 h 12 v -2 l -1,-2 -1,-1 -2,-1 h -3 l -2,1 -2,2 -1,3 v 2 l 1,3 2,2 2,1 h 3 l 2,-1 2,-2 m 6,-11 11,14 m 0,-14 -11,14"
     fill="none"
     stroke="#000000"
     stroke-width="1"
     id="path1" />
  <path
     d="m 35.430946,71.513283 2,-2 h 3 l 2,1 2,-1 m -6,1 h 3 m -6,1 2,-1 2,1 h 3 l 2,-2 m -4,5 -1,1 -1,2 v 1 h -2 l -1,1 v 2 l 1,-1 h 2 v 6 m 1,-10 v 8 m -3,-5 h 3 m 1,-5 v 9 l -1,2 -1,1 m -1,4 3,-2 3,-1 h 3 l 2,1 m -9,1 3,-1 h 3 l 2,1 m -10,1 4,-1 h 3 l 2,1 2,-2 m -3,-16 -1,1 -1,2 v 9 m 1,-10 v 8 m 1,-10 v 9 l -1,2 -1,1 m 2,-12 2,-2 2,-1 h 2 l 2,1 m -3,0 h 1 l 1,1 m -5,-1 h 2 l 2,2 2,-2 m -5,8 2,-1 2,-2 1,1 1,3 v 4 l -1,4 -2,3 m 0,-14 1,1 1,2 v 5 l -1,3 m -2,-10 h 1 l 1,2 v 5 l -1,6 m -3,-12 v 10 m 0,-7 h 4 m -4,3 h 4 m 9,-6 v 9 l -2,1 h 1 l 2,1 1,1 m -1,-12 v 10 l 2,1 m -1,-11 v 9 l 2,1 h 1 l -2,1 -1,1 m -2,-12 4,-1 2,-1 3,4 -2,1 -5,3 m 3,-7 3,3 m -6,-2 2,-1 3,4 m 5,-3 h 1 l 1,1 v 8 l -2,1 h 1 l 2,1 1,1 m -3,-13 2,1 v 10 l 2,1 m -5,-11 2,-2 2,2 v 9 l 2,1 h 1 l -2,1 -1,1 m 0,-12 4,-2 1,1 2,1 h 1 m -5,-1 1,1 h 2 m -4,-1 2,2 h 2 l 2,-1 m 3,0 v 4 l 2,1 h 6 l 2,1 v 4 m -9,-10 v 4 m 8,2 v 4 m -6,-11 -1,1 v 4 l 2,1 m 2,0 2,1 v 4 l -1,1 m -7,-11 3,-1 2,-1 2,1 h 2 l 1,-1 m -6,1 h 2 m -3,0 2,1 h 2 l 2,-1 m 1,11 -3,1 -2,1 -2,-1 h -2 l -2,1 m 7,-1 h -2 m 3,0 -2,-1 h -3 l -3,2 m 11,-14 -1,2 -2,3 -5,5 -3,4 m 17.000004,-19 1,2 v 14 l -2,1 h 1 l 2,1 1,1 m -1,-17 -1,-2 1,-1 v 18 l 2,1 m -4,-18 3,-2 v 18 l 2,1 -2,2 m 0,-11 3,-1 2,-1 1,-1 1,1 2,1 h 1 l -2,1 v 9 l -2,2 -1,2 m 0,-15 2,1 v 10 l -1,2 m -3,-12 h 1 l 2,1 v 9 l -1,4 v 3 l 1,2 h 1 l -2,-2 m 11,-17 v 9 l -2,1 h 1 l 2,1 1,1 m -1,-12 v 10 l 2,1 m -1,-11 v 9 l 2,1 h 1 l -2,1 -1,1 m -2,-12 4,-1 2,-1 3,4 -2,1 -5,3 m 3,-7 3,3 m -6,-2 2,-1 3,4 m 5,-3 h 1 l 1,1 v 8 l -2,1 m 1,-11 2,1 v 10 l 2,1 m -5,-11 2,-2 2,2 v 9 l 2,1 h 1 m -7,0 h 1 l 2,1 1,1 1,-1 2,-1 3,-1 m 0,-11 1,1 2,1 h 1 l -2,1 v 12 l -1,3 -2,2 -2,1 -1,-1 -2,-1 h -2 m 7,-18 2,1 v 13 m -3,5 -2,-1 h -1 m 5,-19 -2,2 2,1 v 10 l 1,3 v 2 m -2,2 -1,-1 -2,-1 h -2 l -2,1 m 39,-25 -2,1 -2,2 -1,2 -1,3 v 3 l 1,3 1,2 2,2 2,1 3,1 h 4 l 3,-1 2,-2 1,-2 v -3 l -1,-2 -1,-1 -2,-1 h -2 m -11,-4 -1,3 v 5 l 1,3 m 4,-15 -2,2 -1,2 -1,3 v 5 l 1,3 1,2 2,2 m 11,-2 1,-1 v -4 l -1,-2 m -4,10 2,-1 1,-1 1,-2 v -4 l -1,-2 -1,-1 -2,-1 m -5,-5 v 13 m 1,-13 v 11 m 1,-12 v 11 l -1,2 -1,1 m 0,-13 2,-1 3,-3 2,1 h 2 l 1,-1 m -6,1 2,1 h 2 m -5,0 2,1 h 2 l 2,-1 1,-2 m -1,2 -4,7 v 12 m 0,-8 h 4 m -4,3 h 4 m 9,-7 v 9 l -2,1 m 3,-9 v 8 l 3,2 m -2,-11 v 9 l 2,1 1,1 m -7,-1 h 2 l 2,1 1,1 2,-1 3,-1 h 2 m -10,-10 h 2 l 3,-1 2,-1 1,1 2,1 h 2 l -2,1 v 9 m -4,-11 3,2 v 8 m -4,-10 1,1 2,1 v 9 m 9,-17 1,2 v 14 l -2,1 h 1 l 2,1 1,1 m -1,-17 -1,-2 1,-1 v 18 l 2,1 m -4,-18 3,-2 v 18 l 2,1 h 1 l -2,1 -1,1 m -5,-14 h 3 m 2,0 h 3 m 4,-5 1,2 v 14 l -2,1 h 1 l 2,1 1,1 m -1,-17 -1,-2 1,-1 v 18 l 2,1 m -4,-18 3,-2 v 18 l 2,1 -2,2 m 0,-11 3,-1 2,-1 1,-1 1,1 2,1 h 1 l -2,1 v 9 l -2,2 -1,2 m 0,-15 2,1 v 10 l -1,2 m -3,-12 h 1 l 2,1 v 9 l -1,4 v 3 l 1,2 h 1 l -2,-2 m 12,-26 -2,2 2,1 2,-1 -2,-2 m 0,1 -1,1 h 2 l -1,-1 m 0,6 -1,1 -2,1 2,1 v 9 l 2,2 2,-2 m -3,-9 1,-1 -1,-1 -1,1 1,1 v 9 l 1,1 m -1,-13 1,1 2,1 -2,1 v 8 l 1,1 h 1 m 6,-10 v 9 l -2,1 h 1 l 2,1 1,1 m -1,-12 v 10 l 2,1 m -1,-11 v 9 l 2,1 h 1 l -2,1 -1,1 m -2,-12 4,-1 2,-1 1,1 2,1 h 1 m -5,-1 1,1 h 2 m -6,0 2,-1 2,2 h 2 l 2,-1 m 18,-7 2,-2 h 2 l 2,1 2,-1 m -5,1 h 2 m -5,1 2,-1 2,1 h 2 l 2,-2 m -3,5 -1,1 -1,2 v 1 h -2 l -1,1 v 2 l 1,-1 h 2 v 6 m 1,-10 v 8 m -3,-5 h 3 m 1,-5 v 9 l -1,2 -1,1 m 5,-10 1,-3 1,-2 1,-1 2,-1 h 2 l 3,1 m -7,1 2,-1 h 2 l 2,1 m -8,2 1,-1 2,-1 h 2 l 2,1 2,-2 m -10,14 1,-3 1,-2 1,-1 h 2 l 2,1 m -4,0 h 2 l 1,1 m -5,1 1,-1 h 2 l 1,1 2,-2 m -13,11 3,-2 4,-1 h 5 l 4,1 m -14,1 3,-1 h 7 l 3,1 m -15,1 4,-1 h 7 l 3,1 2,-2 m -10,-12 v 11 m 14,-9 h 1 l 1,1 v 8 l -2,1 h 1 l 2,1 1,1 m -2,-13 1,1 v 10 l 2,1 m -5,-11 2,-2 2,2 v 9 l 2,1 -2,2 m 0,-11 3,-1 2,-1 1,-1 1,1 2,1 h 1 l -2,1 v 8 l 1,1 h 1 m -5,-11 2,1 v 10 l 1,1 m -5,-11 h 1 l 2,1 v 9 l 2,2 2,-2 m 6,-10 v 9 l -2,1 h 1 l 2,1 1,1 1,-1 2,-1 3,-1 m -7,-8 v 9 l 2,1 m -1,-11 v 9 l 2,1 h 1 m -5,-10 h 2 l 3,-1 2,-1 1,1 2,1 h 2 l -2,1 v 12 l -1,3 -2,2 -2,1 -1,-1 -2,-1 h -2 m 6,-18 3,2 v 12 m -3,5 -2,-1 h -1 m 2,-18 1,1 2,1 v 10 l 1,3 v 2 m -2,2 -1,-1 -2,-1 h -2 l -2,1 m 17,-24 1,2 v 14 l -2,1 h 1 l 2,1 1,1 m -1,-17 -1,-2 1,-1 v 18 l 2,1 m -4,-18 3,-2 v 18 l 2,1 h 1 l -2,1 -1,1 m 9,-21 -2,2 2,1 2,-1 -2,-2 m 0,1 -1,1 h 2 l -1,-1 m 0,6 -1,1 -2,1 2,1 v 9 l 2,2 2,-2 m -3,-9 1,-1 -1,-1 -1,1 1,1 v 9 l 1,1 m -1,-13 1,1 2,1 -2,1 v 8 l 1,1 h 1 m 5,-10 v 4 l 2,1 h 6 l 2,1 v 4 m -9,-10 v 4 m 8,2 v 4 m -6,-11 -1,1 v 4 l 2,1 m 2,0 2,1 v 4 l -1,1 m -7,-11 3,-1 2,-1 2,1 h 2 l 1,-1 m -6,1 h 2 m -3,0 2,1 h 2 l 2,-1 m 1,11 -3,1 -2,1 -2,-1 h -2 l -2,1 m 7,-1 h -2 m 3,0 -2,-1 h -3 l -3,2 m 11,-14 -1,2 -2,3 -5,5 -3,4 m 17,-19 1,2 v 14 l -2,1 h 1 l 2,1 1,1 m -1,-17 -1,-2 1,-1 v 18 l 2,1 m -4,-18 3,-2 v 18 l 2,1 -2,2 m 0,-11 3,-1 2,-1 1,-1 1,1 2,1 h 1 l -2,1 v 9 l -2,2 -1,2 m 0,-15 2,1 v 10 l -1,2 m -3,-12 h 1 l 2,1 v 9 l -1,4 v 3 l 1,2 h 1 l -2,-2"
     fill="none"
     stroke="#000000"
     stroke-width="1"
     id="path2" />
  <path
     d="m 44.430946,109.51328 -6,21 m 7,-21 -6,21 m 18,-21 -6,21 m 7,-21 -6,21 m -11,-21 h 7 m 6,0 h 7 m -19,10 h 12 m -19,11 h 7 m 6,0 h 7 m 10,-5 4,-1 3,-1 3,-2 1,-2 -1,-2 -2,-1 h -3 l -3,1 -2,3 -1,3 v 3 l 1,2 1,1 2,1 h 2 l 3,-1 2,-2 m -5,-11 -2,1 -2,3 -1,3 v 4 l 1,2 m 14,-9 1,-2 2,-2 h 3 l 1,1 v 2 l -1,4 -2,7 m 1,-14 1,1 v 2 l -1,4 -2,7 m 3,-7 2,-4 2,-2 2,-1 h 2 l 1,1 v 1 l -1,1 -1,-1 1,-1 m 16.000004,1 v 1 h 1 v -1 l -1,-1 -3,-1 h -3 l -3,1 -1,1 v 2 l 1,1 7,4 1,1 m -9,-7 1,1 7,4 1,1 v 3 l -1,1 -3,1 h -3 l -3.000004,-1 -1,-1 v -1 h 1 v 1 m 22.000004,-19 -6,21 m 7,-21 -6,21 m 2,-7 2,-4 2,-2 2,-1 h 2 l 2,1 1,1 v 2 l -2,6 v 3 l 1,1 m -2,-14 2,2 v 2 l -2,6 v 3 l 1,1 h 3 l 2,-2 1,-2 m -15,-17 h 4 m 16,16 4,-1 3,-1 3,-2 1,-2 -1,-2 -2,-1 h -3 l -3,1 -2,3 -1,3 v 3 l 1,2 1,1 2,1 h 2 l 3,-1 2,-2 m -5,-11 -2,1 -2,3 -1,3 v 4 l 1,2 m 14,-9 1,-2 2,-2 h 3 l 1,1 v 3 l -2,6 v 2 l 2,2 m -2,-14 1,1 v 3 l -2,6 v 2 l 1,1 2,1 h 2 l 2,-1 2,-2 2,-4 m 3,-7 -4,14 -1,3 -2,3 -3,1 h -3 l -2,-1 -1,-1 v -1 l 1,-1 1,1 -1,1 m 14,-19 -4,14 -1,3 -2,3 -2,1 m 37,-28 -6,21 m 7,-21 -6,21 m 2,-21 h 7 m -13,21 h 7 m 15,-21 -4,14 -1,4 v 2 l 1,1 h 3 l 2,-2 1,-2 m -1,-17 -4,14 -1,4 v 2 l 1,1 m -3,-14 h 9 m 18,0 -2,7 -1,4 v 2 l 1,1 h 3 l 2,-2 1,-2 m -3,-10 -2,7 -1,4 v 2 l 1,1 m -1,-7 v -3 l -1,-3 -2,-1 h -2 l -3,1 -2,3 -1,3 v 3 l 1,2 1,1 2,1 h 2 l 2,-1 2,-3 1,-3 m -5,-7 -2,1 -2,3 -1,3 v 4 l 1,2 m 24,-20 -4,14 -1,4 v 2 l 1,1 h 3 l 2,-2 1,-2 m -1,-17 -4,14 -1,4 v 2 l 1,1 m 0,-21 h 4 m 12,0 -1,1 1,1 1,-1 -1,-1 m -8,11 1,-2 2,-2 h 3 l 1,1 v 3 l -2,6 v 3 l 1,1 m -1,-14 1,1 v 3 l -2,6 v 3 l 1,1 h 3 l 2,-2 1,-2 m 15,-7 v 1 h 1 v -1 l -1,-2 -2,-1 h -3 l -3,1 -2,3 -1,3 v 3 l 1,2 1,1 2,1 h 2 l 3,-1 2,-3 m -5,-10 -2,1 -2,3 -1,3 v 4 l 1,2 m 47,-18 h 1 l 1,-2 -1,6 v -2 l -1,-2 -1,-1 -2,-1 h -3 l -3,1 -2,2 -2,3 -1,3 -1,4 v 3 l 1,3 1,1 3,1 h 3 l 2,-1 2,-2 1,-2 m -4,-16 -2,1 -2,2 -2,3 -1,3 -1,4 v 3 l 1,3 1,1 2,1 m 22,-14 -3,1 -2,3 -1,3 v 3 l 1,2 1,1 2,1 h 2 l 3,-1 2,-3 1,-3 v -3 l -1,-2 -1,-1 -2,-1 h -2 m 0,0 -2,1 -2,3 -1,3 v 4 l 1,2 m 4,1 2,-1 2,-3 1,-3 v -4 l -1,-2 m 6,3 1,-2 2,-2 h 3 l 1,1 v 2 l -1,4 -2,7 m 1,-14 1,1 v 2 l -1,4 -2,7 m 3,-7 2,-4 2,-2 2,-1 h 2 l 2,1 1,1 v 2 l -3,10 m 0,-14 2,2 v 2 l -3,10 m 3,-7 2,-4 2,-2 2,-1 h 2 l 2,1 1,1 v 2 l -2,6 v 3 l 1,1 m -2,-14 2,2 v 2 l -2,6 v 3 l 1,1 h 3 l 2,-2 1,-2 m 2,-6 1,-2 2,-2 h 3 l 1,1 v 2 l -1,4 -4,14 m 3,-21 1,1 v 2 l -1,4 -4,14 m 5,-14 1,-3 2,-3 2,-1 h 2 l 2,1 1,1 1,2 v 3 l -1,3 -2,3 -3,1 h -2 l -2,-1 -1,-3 v -3 m 9,-6 1,2 v 4 l -1,3 -2,3 -2,1 m -13,7 h 7 m 23,-28 -4,14 -1,4 v 2 l 1,1 h 3 l 2,-2 1,-2 m -1,-17 -4,14 -1,4 v 2 l 1,1 m 0,-21 h 4 m 7,16 4,-1 3,-1 3,-2 1,-2 -1,-2 -2,-1 h -3 l -3,1 -2,3 -1,3 v 3 l 1,2 1,1 2,1 h 2 l 3,-1 2,-2 m -5,-11 -2,1 -2,3 -1,3 v 4 l 1,2 m 16,-9 2,-3 2,-1 h 3 l 1,2 v 3 m -2,-5 1,2 v 3 l -1,4 -1,2 -2,2 -2,1 h -1 l -1,-1 v -1 l 1,-1 1,1 -1,1 m 6,-4 v 3 l 1,2 h 3 l 2,-1 2,-3 m 0,-9 -1,1 1,1 1,-1 v -1 l -1,-1 h -1 l -2,1 -2,2 -1,2 -1,4 v 3 l 1,2"
     fill="none"
     stroke="#000000"
     stroke-width="1"
     id="path3" />
  <path
     d="m 38.430946,149.51328 v 21 m 1,-20 v 19 m 1,-20 v 21 m 10,-21 v 21 m 1,-20 v 19 m 1,-20 v 21 m -17,-21 h 8 m 4,0 h 8 m -15,10 h 10 m -15,11 h 8 m 4,0 h 8 m -19,-21 2,1 m -1,-1 1,2 m 3,-2 -1,2 m 2,-2 -2,1 m 8,-1 2,1 m -1,-1 1,2 m 3,-2 -1,2 m 2,-2 -2,1 m -14,19 -2,1 m 2,-2 -1,2 m 3,-2 1,2 m -1,-1 2,1 m 8,-1 -2,1 m 2,-2 -1,2 m 3,-2 1,2 m -1,-1 2,1 m 8,-8 h 11 v -2 l -1,-2 -1,-1 -3,-1 h -2 l -3,1 -2,2 -1,3 v 2 l 1,3 2,2 3,1 h 2 l 3,-1 2,-2 m -1,-6 v -1 l -1,-2 m -9,1 -1,2 v 4 l 1,2 m 9,-5 v -3 l -1,-2 -2,-1 m -2,0 -2,1 -1,1 -1,3 v 4 l 1,3 1,1 2,1 m 15,-14 v 14 m 1,-13 v 12 m -4,-13 h 5 v 14 m 7,-12 v -1 h -1 v 2 h 2 v -2 l -1,-1 h -2 l -2,1 -2,2 -1,3 m -5,8 h 8 m -7,-14 2,1 m -1,-1 1,2 m 0,11 -2,1 m 2,-2 -1,2 m 3,-2 1,2 m -1,-1 2,1 m 21.000004,-12 1,-2 v 4 l -1,-2 -1,-1 -2,-1 h -4.000004 l -2,1 -1,1 v 2 l 1,2 2,1 5.000004,1 2,1 1,3 m -10.000004,-11 -1,3 m 1,1 2,1 5.000004,1 2,1 m 1,1 -1,4 m -10.000004,-11 1,2 2,1 5.000004,1 2,1 1,2 v 3 l -1,1 -2,1 h -4 l -2.000004,-1 -1,-1 -1,-2 v 4 l 1,-2 m 18.000004,-19 v 21 m 1,-20 v 19 m -4,-20 h 5 v 21 m 0,-10 1,-2 1,-1 2,-1 h 3 l 2,1 1,1 1,3 v 9 m -2,-12 1,3 v 8 m -3,-13 1,1 1,3 v 10 m -14,0 h 8 m 3,0 h 8 m -18,-21 2,1 m -1,-1 1,2 m 0,18 -2,1 m 2,-2 -1,2 m 3,-2 1,2 m -1,-1 2,1 m 7,-1 -2,1 m 2,-2 -1,2 m 3,-2 1,2 m -1,-1 2,1 m 8,-8 h 11 v -2 l -1,-2 -1,-1 -3,-1 h -2 l -3,1 -2,2 -1,3 v 2 l 1,3 2,2 3,1 h 2 l 3,-1 2,-2 m -1,-6 v -1 l -1,-2 m -9,1 -1,2 v 4 l 1,2 m 9,-5 v -3 l -1,-2 -2,-1 m -2,0 -2,1 -1,1 -1,3 v 4 l 1,3 1,1 2,1 m 14,-14 6,14 m -5,-14 5,12 m -4,-12 5,12 m 5,-11 -5,11 -3,6 -2,2 -2,1 h -2 l -1,-1 v -2 h 2 v 2 h -1 v -1 m 0,-19 h 7 m 3,0 h 6 m -15,0 3,2 m 2,-2 -2,1 m 8,-1 2,1 m 1,-1 -1,1 m 24,-8 v 21 m 1,-20 v 19 m 1,-20 v 21 m -5,-21 h 12 l 3,1 1,1 1,2 v 2 l -1,2 -1,1 -3,1 h -7 m 10,-8 1,2 v 2 l -1,2 m -3,-8 2,1 1,2 v 4 l -1,2 -2,1 m -3,0 2,1 1,2 2,6 1,2 h 2 l 1,-2 v -2 m -4,0 1,2 1,1 h 1 m -6,-9 1,1 3,6 1,1 h 1 l 1,-1 m -18,3 h 8 m -7,-21 2,1 m -1,-1 1,2 m 3,-2 -1,2 m 2,-2 -2,1 m -2,19 -2,1 m 2,-2 -1,2 m 3,-2 1,2 m -1,-1 2,1 m 22,-14 -3,1 -2,2 -1,3 v 2 l 1,3 2,2 3,1 h 2 l 3,-1 2,-2 1,-3 v -2 l -1,-3 -2,-2 -3,-1 h -2 m -4,3 -1,2 v 4 l 1,2 m 10,0 1,-2 v -4 l -1,-2 m -6,-3 -2,1 -1,1 -1,3 v 4 l 1,3 1,1 2,1 m 2,0 2,-1 1,-1 1,-3 v -4 l -1,-3 -1,-1 -2,-1 m 14,0 v 14 m 1,-13 v 12 m -4,-13 h 5 v 14 m 0,-10 1,-2 1,-1 2,-1 h 3 l 2,1 1,1 1,3 v 9 m -2,-12 1,3 v 8 m -3,-13 1,1 1,3 v 10 m 2,-10 1,-2 1,-1 2,-1 h 3 l 2,1 1,1 1,3 v 9 m -2,-12 1,3 v 8 m -3,-13 1,1 1,3 v 10 m -25,0 h 8 m 3,0 h 8 m 3,0 h 8 m -29,-14 2,1 m -1,-1 1,2 m 0,11 -2,1 m 2,-2 -1,2 m 3,-2 1,2 m -1,-1 2,1 m 7,-1 -2,1 m 2,-2 -1,2 m 3,-2 1,2 m -1,-1 2,1 m 7,-1 -2,1 m 2,-2 -1,2 m 3,-2 1,2 m -1,-1 2,1 m 8,-11 v -1 h 1 v 2 h -2 v -2 l 1,-1 2,-1 h 4 l 2,1 1,1 1,2 v 7 l 1,2 1,1 m -4,-12 1,2 v 7 l 1,2 m -4,-13 1,1 1,2 v 8 l 1,2 3,1 h 1 m -5,-9 -1,1 -5,1 -3,1 -1,2 v 1 l 1,2 3,1 h 3 l 2,-1 1,-2 m -8,-3 -1,2 v 1 l 1,2 m 7,-7 -4,1 -2,1 -1,2 v 1 l 1,2 1,1 m 18,-14 v 14 m 1,-13 v 12 m -4,-13 h 5 v 14 m 0,-10 1,-2 1,-1 2,-1 h 3 l 2,1 1,1 1,3 v 9 m -2,-12 1,3 v 8 m -3,-13 1,1 1,3 v 10 m -14,0 h 8 m 3,0 h 8 m -18,-14 2,1 m -1,-1 1,2 m 0,11 -2,1 m 2,-2 -1,2 m 3,-2 1,2 m -1,-1 2,1 m 7,-1 -2,1 m 2,-2 -1,2 m 3,-2 1,2 m -1,-1 2,1 m 21,-21 v 6 m 7,-6 v 21 m 1,-20 v 19 m 1,-20 v 21 m 7,-21 v 6 m -16,-6 h 16 m -12,21 h 8 m -11,-21 -1,6 m 2,-6 -2,3 m 3,-3 -3,2 m 5,-2 -5,1 m 11,-1 5,1 m -3,-1 3,2 m -2,-2 2,3 m -1,-3 1,6 m -9,14 -2,1 m 2,-2 -1,2 m 3,-2 1,2 m -1,-1 2,1 m 12,-14 v 14 m 1,-13 v 12 m -4,-13 h 5 v 14 m 7,-12 v -1 h -1 v 2 h 2 v -2 l -1,-1 h -2 l -2,1 -2,2 -1,3 m -5,8 h 8 m -7,-14 2,1 m -1,-1 1,2 m 0,11 -2,1 m 2,-2 -1,2 m 3,-2 1,2 m -1,-1 2,1 m 13,-21 v 2 h 2 v -2 h -2 m 1,0 v 2 m -1,-1 h 2 m -2,6 v 14 m 1,-13 v 12 m -4,-13 h 5 v 14 m -5,0 h 8 m -7,-14 2,1 m -1,-1 1,2 m 0,11 -2,1 m 2,-2 -1,2 m 3,-2 1,2 m -1,-1 2,1 m 8,-14 v 21 m 1,-20 v 19 m -4,-20 h 5 v 21 m 0,-18 1,-2 2,-1 h 2 l 3,1 2,2 1,3 v 2 l -1,3 -2,2 -3,1 h -2 l -2,-1 -1,-2 m 9,-8 1,2 v 4 l -1,2 m -4,-11 2,1 1,1 1,3 v 4 l -1,3 -1,1 -2,1 m -10,7 h 8 m -7,-21 2,1 m -1,-1 1,2 m 0,18 -2,1 m 2,-2 -1,2 m 3,-2 1,2 m -1,-1 2,1 m 17,-28 v 21 m 1,-20 v 19 m -4,-20 h 5 v 21 m -5,0 h 8 m -7,-21 2,1 m -1,-1 1,2 m 0,18 -2,1 m 2,-2 -1,2 m 3,-2 1,2 m -1,-1 2,1 m 8,-8 h 11 v -2 l -1,-2 -1,-1 -3,-1 h -2 l -3,1 -2,2 -1,3 v 2 l 1,3 2,2 3,1 h 2 l 3,-1 2,-2 m -1,-6 v -1 l -1,-2 m -9,1 -1,2 v 4 l 1,2 m 9,-5 v -3 l -1,-2 -2,-1 m -2,0 -2,1 -1,1 -1,3 v 4 l 1,3 1,1 2,1 m 14,-14 10,14 m -9,-14 10,14 m -9,-14 10,14 m -1,-13 -10,12 m -3,-13 h 7 m 3,0 h 6 m -16,14 h 6 m 3,0 h 7 m -15,-14 2,1 m 3,-1 -2,1 m 7,-1 2,1 m 2,-1 -2,1 m -10,12 -2,1 m 2,-1 2,1 m 7,-1 -2,1 m 3,-1 2,1"
     fill="none"
     stroke="#000000"
     stroke-width="1"
     id="path4" />
  <path
     d="m 35.430946,189.51328 v 6 h 3 l 1,-1 v -1 l -1,-1 h -3 v 0 0 0 h 3 l 1,-1 v -1 l -1,-1 h -3 m 6,6 m 1,0 h 2 l 1,-1 v -2 l -1,-1 h -2 l -1,1 v 2 l 1,1 m 5,0 m 0,-4 v 4 -2 l 1,-1 1,-1 h 1 m 3,4 m 0,0 h 2 -1 v -6 h -1 m 5,6 m 1,-4 h 2 l 1,1 v 3 h -3 l -1,-1 1,-1 h 3 m 2,2 m 0,0 v -4 h 3 l 1,1 v 3 m 2,0 m 4,-6 v 6 h -3 l -1,-1 v -2 l 1,-1 h 3 m 2,4 m 6,0 m 0,-6 v 6 h 4 m 2,0 m 0,-6 h 2 -1 v 6 h -1 2 m 3,0 m 0,-6 h 4 -2 v 6 m 4,0 m 0,-6 h 4.000004 -2 v 6 m 4,0 m 0,0 v -1 h 1 v 1 h -1 m 5,0 m 4,-5 -1,-1 h -2 l -1,1 v 4 l 1,1 h 2 l 1,-1 m 2,1 m 0,-6 v 6 -3 h 4 v -3 6 m 2,0 m 0,0 v -6 h 3 l 1,1 v 2 l -1,1 h -3 m 2,0 2,2 m 2,0"
     fill="none"
     stroke="#000000"
     stroke-width="1"
     id="path5" />
  <path
     d="m 35.430946,255.51328 v -42 h 21 l 4,3 v 4 6 4 l -4,3 h -21 m 21,0 4,3 1,5 v 6 l -1,5 -4,3 h -21 m 32,0 m 5,0 -3,-3 -2,-7 v -11 l 2,-6 3,-3 h 11 l 4,3 1,7 v 10 l -1,7 -4,3 h -11 m 22,0 m 0,0 v -30 m 0,9 3,-6 3.000004,-3 h 6 l 3,3 2,7 m 6,20 m 0,0 v -42 m 6,42 m 0,-24 2,-4 3,-2 h 9 l 4,2 2,4 v 24 m 0,-13 -2,-2 -3,-2 h -11 l -2,2 -2,2 v 9 l 2,3 2,1 h 11 l 3,-1 2,-3 m 6,4 m 0,0 v -30 m 0,9 2,-6 3,-3 h 10 l 4,3 1,6 v 21 m 6,0 m 21,-21 -1,-6 -4,-3 h -11 l -3,3 -2,7 v 10 l 2,7 3,3 h 11 l 4,-3 1,-5 m 0,-34 v 42 m 6,0 m 29,0 m 24,0 h -24 v -42 h 24 m -1,20 h -23 m 30,22 m 0,-42 v 29 l 1,7 2,5 5,1 h 11 l 5,-1 2,-5 1,-7 v -29 m 6,42 m 0,0 v -42 h 21 l 4,3 v 4 10 4 l -4,3 h -21 m 21,0 4,2 v 5 11 m 6,0 m 9,0 -6,-1 -2,-5 -1,-8 v -14 l 1,-9 2,-4 6,-1 h 11 l 6,1 3,5 1,8 v 14 l -1,8 -3,5 -6,1 h -11 m 27,0 m 2,0 h -2 v -4 h 2 v 4 m 7,0 m 28,-31 -1,-6 -2,-4 -5,-1 h -12 l -5,1 -2,5 -1,8 v 14 l 1,9 2,4 5,1 h 12 l 5,-1 2,-5 1,-5 m 6,11 m 0,0 v -42 m 0,20 h 27 m 0,-20 v 42 m 6,0 m 0,0 v -42 h 21 l 4,3 v 4 10 4 l -4,3 h -21 m 21,0 4,2 v 5 11 m 6,0"
     fill="none"
     stroke="#000000"
     stroke-width="1"
     id="path6" />
  <path
     d="m 35.430946,287.51328 2,-2 h 3 l 2,1 2,-1 m -6,1 h 3 m -6,1 2,-1 2,1 h 3 l 2,-2 m -4,5 -1,1 -1,2 v 1 h -2 l -1,1 v 2 l 1,-1 h 2 v 6 m 1,-10 v 8 m -3,-5 h 3 m 1,-5 v 9 l -1,2 -1,1 m 7,-14 -1,1 -1,2 v 9 m 1,-10 v 8 m 1,-10 v 9 l -1,2 -1,1 m 2,-12 6,-3 2,1 1,2 v 2 l -2,2 -4,2 m 3,-8 2,2 v 2 m -4,-4 2,1 1,1 v 3 l -2,2 m 0,0 3,2 1,2 v 6 m -2,-8 1,2 v 5 m -3,-9 1,1 1,2 v 7 m -15,3 3,-2 3,-1 h 4 l 3,1 m -11,1 3,-1 h 5 l 2,1 m -12,1 4,-1 h 5 l 2,1 2,-2 2,-1 h 2 m -6,-9 v 9 m 0,-6 h 4 m -4,3 h 4 m 5,6 m 2,-12 v 9 l -2,1 m 3,-9 v 8 l 3,2 m -2,-11 v 9 l 2,1 1,1 m -7,-1 h 2 l 2,1 1,1 2,-1 3,-1 h 2 m -10,-10 h 2 l 3,-1 2,-1 1,1 2,1 h 2 l -2,1 v 9 m -4,-11 3,2 v 8 m -4,-10 1,1 2,1 v 9 m 6,2 m 0,-12 h 1 l 1,1 v 8 l -2,1 h 1 l 2,1 1,1 m -3,-13 2,1 v 10 l 2,1 m -5,-11 2,-2 2,2 v 9 l 2,1 h 1 l -2,1 -1,1 m 0,-12 4,-2 1,1 2,1 h 1 m -5,-1 1,1 h 2 m -4,-1 2,2 h 2 l 2,-1 m 0,12 m 1,-19 1,2 v 14 l -2,1 h 1 l 2,1 1,1 m -1,-17 -1,-2 1,-1 v 18 l 2,1 m -4,-18 3,-2 v 18 l 2,1 h 1 l -2,1 -1,1 m 4,0 m 3,-9 -2,2 -1,2 v 2 l 1,2 2,1 2,-2 3.000004,-1 m -8.000004,-2 1,2 1,1 2,1 m -3,-6 v 2 l 1,2 2,1 h 1 m -4,-9 h 2 l 3,-1 2.000004,-1 1,-1 2,2 -1,1 v 8 l 1,1 h 1 m -10.000004,-11 -1,1 h 3 m 3.000004,0 h 3 l -1,-1 v 11 l 1,1 m -10.000004,-11 2,-2 1,1 2,1 3.000004,1 v 9 l 2,2 2,-2 m -12.000004,-10 5,5 m 9.000004,7 m 0,-12 h 1 l 1,1 v 8 l -2,1 h 1 l 2,1 1,1 m -2,-13 1,1 v 10 l 2,1 m -5,-11 2,-2 2,2 v 9 l 2,1 -2,2 m 0,-11 3,-1 2,-1 1,-1 1,1 2,1 h 1 l -2,1 v 8 l 1,1 h 1 m -5,-11 2,1 v 10 l 1,1 m -5,-11 h 1 l 2,1 v 9 l 2,2 2,-2 m 2,2 m 7,-14 -2,1 -3,1 v 9 l -2,1 m 3,-10 v 9 l 3,2 m 1,-13 -3,2 v 9 l 2,1 1,1 m -7,-1 h 2 l 2,1 1,1 2,-1 3,-1 h 2 m -10,-17 3,-2 1,3 6,6 v 10 m -7,-16 -2,-1 1,-1 1,2 6,6 v 9 m -9,-16 8,8 v 9 m 5,2 m 16,0 m 6,-20 -2,1 -2,2 -1,2 -1,3 v 3 l 1,3 1,2 2,2 2,1 3,1 h 4 l 3,-1 2,-2 1,-2 v -3 l -1,-2 -1,-1 -2,-1 h -2 m -11,-4 -1,3 v 5 l 1,3 m 4,-15 -2,2 -1,2 -1,3 v 5 l 1,3 1,2 2,2 m 11,-2 1,-1 v -4 l -1,-2 m -4,10 2,-1 1,-1 1,-2 v -4 l -1,-2 -1,-1 -2,-1 m -5,-5 v 13 m 1,-13 v 11 m 1,-12 v 11 l -1,2 -1,1 m 0,-13 2,-1 3,-3 2,1 h 2 l 1,-1 m -6,1 2,1 h 2 m -5,0 2,1 h 2 l 2,-1 1,-2 m -1,2 -4,7 v 12 m 0,-8 h 4 m -4,3 h 4 m 5,5 m 6,-21 -2,1 -2,2 -1,2 -1,3 v 4 l 1,3 1,2 2,2 2,1 3,1 h 2 l 3,-1 2,-1 2,-2 1,-2 1,-3 v -4 l -1,-3 -1,-2 -2,-2 -2,-1 -1,1 -3,2 -3,1 m -5,0 -1,3 v 6 l 1,3 m 4,-16 -2,2 -1,2 -1,3 v 6 l 1,3 1,2 2,2 m 12,-4 1,-3 v -6 l -2,-4 -1,-1 m -2,18 2,-2 1,-2 1,-3 v -6 l -1,-2 -2,-3 -2,-1 m -6,3 v 13 m 1,-13 v 11 m 1,-11 v 10 l -1,2 -1,1 m 6,-16 v 19 m 0,-13 2,1 h 1 l 2,-1 m -5,6 2,-1 h 1 l 2,1 m 5,8 m 2,-17 -1,2 -1,3 v 4 l 1,3 2,3 2,1 3,1 h 3 l 3,-1 2,-1 2,-2 1,-2 m -18,-2 1,3 2,2 2,1 3,1 h 3 l 3,-1 m -13,-15 -1,3 v 4 l 1,3 2,3 2,1 3,1 h 3 l 3,-1 2,-1 2,-2 m -19,-12 1,-2 2,-1 h 4 l 6,1 h 4 l 2,-1 m -11,1 4,1 h 4 m -16,1 1,-1 2,-1 h 3 l 6,2 h 3 l 2,-1 2,-2 m -8,3 -1,1 -2,1 v 11 m 1,-11 v 9 m 1,-10 v 9 l -1,2 -1,1 m 7,-13 v 15 m 6,3 m 0,-19 2,-2 h 3 l 2,1 2,-1 m -6,1 h 3 m -6,1 2,-1 2,1 h 3 l 2,-2 m -4,5 -1,1 -1,2 v 1 h -2 l -1,1 v 2 l 1,-1 h 2 v 6 m 1,-10 v 8 m -3,-5 h 3 m 1,-5 v 9 l -1,2 -1,1 m -1,4 3,-2 3,-1 h 3 l 2,1 m -9,1 3,-1 h 3 l 2,1 m -10,1 4,-1 h 3 l 2,1 2,-2 m -3,-16 -1,1 -1,2 v 9 m 1,-10 v 8 m 1,-10 v 9 l -1,2 -1,1 m 2,-12 2,-2 2,-1 h 2 l 2,1 m -3,0 h 1 l 1,1 m -5,-1 h 2 l 2,2 2,-2 m -5,8 2,-1 2,-2 1,1 1,3 v 4 l -1,4 -2,3 m 0,-14 1,1 1,2 v 5 l -1,3 m -2,-10 h 1 l 1,2 v 5 l -1,6 m -3,-12 v 10 m 0,-7 h 4 m -4,3 h 4 m 5,6 m 2,-3 -2,2 2,1 2,-1 -2,-2 m 0,1 -1,1 h 2 l -1,-1 m 6,2 m 6,-20 -2,1 -2,2 -1,2 -1,3 v 4 l 1,3 1,2 3,2 3,1 h 3 l 3,-1 2,-1 2,-2 1,-2 m -17,-10 -1,3 v 5 l 2,4 3,2 3,1 h 3 l 3,-1 m -9,-18 -2,2 -1,2 -1,3 v 4 l 1,3 3,3 3,1 h 3 l 3,-1 2,-1 2,-2 m -11,-11 v 12 m 1,-12 v 10 m 1,-11 v 10 l -1,2 -1,1 m 0,-12 2,-1 3,-3 2,1 h 2 l 1,-1 m -6,1 2,1 h 2 m -5,0 2,1 h 2 l 2,-1 1,-2 m -3,3 v 15 m 6,3 m 0,-19 2,-2 h 3 l 2,1 2,-1 m -6,1 h 3 m -6,1 2,-1 2,1 h 3 l 2,-2 m -4,5 -1,1 -1,2 v 1 h -2 l -1,1 v 2 l 1,-1 h 2 v 6 m 1,-10 v 8 m -3,-5 h 3 m 1,-5 v 9 l -1,2 -1,1 m -1,4 3,-2 3,-1 h 3 l 2,1 m -9,1 3,-1 h 3 l 2,1 m -10,1 4,-1 h 3 l 2,1 2,-2 m -3,-16 -1,1 -1,2 v 9 m 1,-10 v 8 m 1,-10 v 9 l -1,2 -1,1 m 2,-12 2,-2 2,-1 h 2 l 2,1 m -3,0 h 1 l 1,1 m -5,-1 h 2 l 2,2 2,-2 m -5,8 2,-1 2,-2 1,1 1,3 v 4 l -1,4 -2,3 m 0,-14 1,1 1,2 v 5 l -1,3 m -2,-10 h 1 l 1,2 v 5 l -1,6 m -3,-12 v 10 m 0,-7 h 4 m -4,3 h 4 m 5,6 m 0,-19 2,-2 h 3 l 2,1 2,-1 m -6,1 h 3 m -6,1 2,-1 2,1 h 3 l 2,-2 m -4,5 -1,1 -1,2 v 1 h -2 l -1,1 v 2 l 1,-1 h 2 v 6 m 1,-10 v 8 m -3,-5 h 3 m 1,-5 v 9 l -1,2 -1,1 m -1,4 3,-2 3,-1 h 2 l 3,1 m -9,1 2,-1 h 4 l 2,1 m -10,1 4,-1 h 3 l 2,1 2,-2 m -3,-16 -1,1 -1,2 v 9 m 1,-10 v 8 m 1,-10 v 9 l -1,2 -1,1 m 2,-12 3,-2 2,-1 2,1 1,2 v 3 l -1,2 -1,1 -4,2 -2,1 m 5,-11 h 1 l 1,2 v 4 l -1,1 m -3,-7 2,1 1,2 v 3 l -1,2 -3,2 m 0,0 2,1 1,1 3,5 1,1 h 1 m -5,-5 2,4 2,2 m -7,-9 2,2 2,6 2,2 2,-2 m 2,2"
     fill="none"
     stroke="#000000"
     stroke-width="1"
     id="path7" />
  <path
     d="m 35.430946,349.51328 v -21 l 12,21 v -21 m 18,20 -2,1 h -4 l -2,-1 -1,-2 v -8 l 1,-2 2,-1 h 4 l 2,1 1,2 v 2 l -10,2 m 17,-7 4,14 4,-10 4,10 4,-14 m 7,13 3,1 h 5.000004 l 2,-1 1,-1 1,-2 v -2 l -1,-2 -1,-1 -2,-1 -4,-1 -2.000004,-1 -1,-1 -1,-2 v -2 l 1,-2 1,-1 2.000004,-1 h 5 l 3,1 m 6,6 h 8 m -5,-7 v 18 l 1,2 2,1 h 2 m 7,0 v -14 m 0,4 1,-2 1,-1 2,-1 h 2 m 10,14 -2,-1 -1,-1 -1,-2 v -6 l 1,-2 1,-1 2,-1 h 3 l 2,1 1,1 1,2 v 6 l -1,2 -1,1 -2,1 h -3 m 16,0 v -21 m 2,13 6,8 m 0,-14 -8,8 m 25,5 -2,1 h -4 l -2,-1 -1,-2 v -8 l 1,-2 2,-1 h 4 l 2,1 1,2 v 2 l -10,2 m 41,15 -1,-1 -2,-3 -1,-2 -1,-3 -1,-5 v -4 l 1,-5 1,-3 1,-2 2,-3 1,-1 m 8,24 v -21 m 12,21 -9,-12 m 9,-9 -12,12 m 24,9 v -14 m 0,-7 -1,1 1,1 1,-1 -1,-1 v 2 m 25,17 -1,1 -3,1 h -2 l -3,-1 -2,-2 -1,-2 -1,-4 v -3 l 1,-4 1,-2 2,-2 3,-1 h 2 l 3,1 1,1 m 8,13 h 10 m -12,6 7,-21 7,21 m 7,0 v -21 h 5 l 3,1 2,2 1,2 1,4 v 3 l -1,4 -1,2 -2,2 -3,1 h -5 m 44,-11 h -7 m 0,11 v -21 h 10 m 11,21 -2,-1 -1,-1 -1,-2 v -6 l 1,-2 1,-1 2,-1 h 3 l 2,1 1,1 1,2 v 6 l -1,2 -1,1 -2,1 h -3 m 16,-14 v 14 m 0,-12 1,-1 2,-1 h 3 l 2,1 1,2 v 11 m 7,-14 h 8 m -5,-7 v 18 l 1,2 2,1 h 2 m 5,8 1,-1 2,-3 1,-2 1,-3 1,-5 v -4 l -1,-5 -1,-3 -1,-2 -2,-3 -1,-1"
     fill="none"
     stroke="#000000"
     stroke-width="1"
     id="path8" />
  <rect
     style="fill:none;stroke:#000000;stroke-width:5;stroke-linecap:round;stroke-linejoin:round;stroke-dasharray:none;stroke-opacity:1"
     id="rect8"
     width="498.36191"
     height="380.02658"
     x="2.5"
     y="2.5" />
</svg>
