<svg version="1.1" viewBox="0.0 0.0 600.0 371.0" fill="none" stroke="none" stroke-linecap="square" stroke-miterlimit="10" width="600" height="371" xmlns:xlink="http://www.w3.org/1999/xlink" xmlns="http://www.w3.org/2000/svg"><path fill="#ffffff" d="M0 0L600.0 0L600.0 371.0L0 371.0L0 0Z" fill-rule="nonzero"/><path stroke="#cccccc" stroke-width="1.0" stroke-linecap="butt" d="M91.5 61.5L91.5 300.5" fill-rule="nonzero"/><path stroke="#cccccc" stroke-width="1.0" stroke-linecap="butt" d="M226.5 61.5L226.5 300.5" fill-rule="nonzero"/><path stroke="#cccccc" stroke-width="1.0" stroke-linecap="butt" d="M362.5 61.5L362.5 300.5" fill-rule="nonzero"/><path stroke="#cccccc" stroke-width="1.0" stroke-linecap="butt" d="M497.5 61.5L497.5 300.5" fill-rule="nonzero"/><path stroke="#cccccc" stroke-width="1.0" stroke-linecap="butt" d="M84.5 300.5L581.5 300.5" fill-rule="nonzero"/><path stroke="#cccccc" stroke-width="1.0" stroke-linecap="butt" d="M84.5 237.5L581.5 237.5" fill-rule="nonzero"/><path stroke="#cccccc" stroke-width="1.0" stroke-linecap="butt" d="M84.5 175.5L581.5 175.5" fill-rule="nonzero"/><path stroke="#cccccc" stroke-width="1.0" stroke-linecap="butt" d="M84.5 112.5L581.5 112.5" fill-rule="nonzero"/><clipPath id="id_0"><path d="M84.55 61.916668L581.45 61.916668L581.45 300.45L84.55 300.45L84.55 61.916668Z" clip-rule="nonzero"/></clipPath><path stroke="#4285f4" stroke-width="2.0" stroke-linecap="butt" stroke-opacity="0.4" clip-path="url(#id_0)" d="M0 -27.667019C0 -27.667019 2.6666667 -25.457567 4.0 -24.35284C5.3333335 -23.248116 6.6666665 -22.143389 8.0 -21.038662C9.333333 -19.933937 10.666667 -18.82921 12.0 -17.724485C13.333333 -16.619759 14.666667 -15.515033 16.0 -14.410307C17.333334 -13.305581 18.666666 -12.200855 20.0 -11.096129C21.333334 -9.991404 22.666666 -8.886678 24.0 -7.7819514C25.333334 -6.6772256 26.666666 -5.5724998 28.0 -4.4677734C29.333334 -3.3630476 30.666666 -2.2583218 32.0 -1.1535957C33.333332 -0.048869796 34.666668 1.0558561 36.0 2.160582C37.333332 3.2653081 38.666668 4.370034 40.0 5.47476C41.333332 6.579486 42.666668 7.6842117 44.0 8.788938C45.333332 9.893663 46.666668 10.998389 48.0 12.103116C49.333332 13.207842 50.666668 14.312568 52.0 15.417294C53.333332 16.522018 54.666668 17.626745 56.0 18.731472C57.333332 19.836197 58.666668 20.940924 60.0 22.045649C61.333332 23.150375 62.666668 24.2551 64.0 25.359827C65.333336 26.464552 66.666664 27.569279 68.0 28.674006C69.333336 29.77873 70.666664 30.883457 72.0 31.988182C73.333336 33.092907 74.666664 34.197636 76.0 35.30236C77.333336 36.407085 78.666664 37.511814 80.0 38.61654C81.333336 39.721264 82.666664 40.82599 84.0 41.930717C85.333336 43.035442 86.666664 44.140167 88.0 45.244892C89.333336 46.34962 90.666664 47.454346 92.0 48.55907C93.333336 49.6638 94.666664 50.768524 96.0 51.87325C97.333336 52.977974 98.666664 54.082703 100.0 55.187428C101.333336 56.292152 102.666664 57.39688 104.0 58.501606C105.333336 59.60633 106.666664 60.711056 108.0 61.815784C109.333336 62.92051 110.666664 64.02524 112.0 65.12996C113.333336 66.23469 114.666664 67.33942 116.0 68.44414C117.333336 69.54887 118.666664 70.65359 120.0 71.758316C121.333336 72.863045 122.666664 73.967766 124.0 75.072495C125.333336 76.17722 126.666664 77.281944 128.0 78.38667C129.33333 79.4914 130.66667 80.59612 132.0 81.70085C133.33333 82.80557 134.66667 83.9103 136.0 85.01503C137.33333 86.11975 138.66667 87.22448 140.0 88.32921C141.33333 89.43393 142.66667 90.53866 144.0 91.64339C145.33333 92.74811 146.66667 93.85284 148.0 94.95756C149.33333 96.06229 150.66667 97.167015 152.0 98.271736C153.33333 99.376465 154.66667 100.48119 156.0 101.585915C157.33333 102.69064 158.66667 103.79537 160.0 104.90009C161.33333 106.00482 162.66667 107.10955 164.0 108.21427C165.33333 109.319 166.66667 110.42372 168.0 111.52845C169.33333 112.63318 170.66667 113.7379 172.0 114.84263C173.33333 115.94736 174.66667 117.05208 176.0 118.15681C177.33333 119.261536 178.66667 120.36626 180.0 121.470985C181.33333 122.57571 182.66667 123.680435 184.0 124.785164C185.33333 125.889885 186.66667 126.99461 188.0 128.09933C189.33333 129.20407 190.66667 130.30879 192.0 131.41351C193.33333 132.51825 194.66667 133.62297 196.0 134.72769C197.33333 135.83243 198.66667 136.93715 200.0 138.04187C201.33333 139.1466 202.66667 140.25133 204.0 141.35605C205.33333 142.46077 206.66667 143.5655 208.0 144.67023C209.33333 145.77495 210.66667 146.87968 212.0 147.9844C213.33333 149.08913 214.66667 150.19386 216.0 151.29858C217.33333 152.4033 218.66667 153.50804 220.0 154.61276C221.33333 155.71748 222.66667 156.82222 224.0 157.92694C225.33333 159.03166 226.66667 160.1364 228.0 161.24112C229.33333 162.34584 230.66667 163.45058 232.0 164.5553C233.33333 165.66002 234.66667 166.76476 236.0 167.86948C237.33333 168.9742 238.66667 170.07892 240.0 171.18365C241.33333 172.28838 242.66667 173.3931 244.0 174.49783C245.33333 175.60255 246.66667 176.70728 248.0 177.81201C249.33333 178.91673 250.66667 180.02145 252.0 181.12619C253.33333 182.23091 254.66667 183.33563 256.0 184.44037C257.33334 185.54509 258.66666 186.64981 260.0 187.75455C261.33334 188.85927 262.66666 189.96399 264.0 191.06873C265.33334 192.17345 266.66666 193.27817 268.0 194.38289C269.33334 195.48763 270.66666 196.59235 272.0 197.69707C273.33334 198.8018 274.66666 199.90652 276.0 201.01125C277.33334 202.11598 278.66666 203.2207 280.0 204.32542C281.33334 205.43016 282.66666 206.53488 284.0 207.6396C285.33334 208.74434 286.66666 209.84906 288.0 210.95378C289.33334 212.05852 290.66666 213.16324 292.0 214.26796C293.33334 215.3727 294.66666 216.47742 296.0 217.58214C297.33334 218.68687 298.66666 219.7916 300.0 220.89632C301.33334 222.00104 302.66666 223.10577 304.0 224.2105C305.33334 225.31522 306.66666 226.41995 308.0 227.52467C309.33334 228.6294 310.66666 229.73413 312.0 230.83885C313.33334 231.94357 314.66666 233.04831 316.0 234.15303C317.33334 235.25775 318.66666 236.36249 320.0 237.46721C321.33334 238.57193 322.66666 239.67667 324.0 240.78139C325.33334 241.88611 326.66666 242.99084 328.0 244.09557C329.33334 245.20029 330.66666 246.30502 332.0 247.40974C333.33334 248.51447 334.66666 249.61919 336.0 250.72392C337.33334 251.82864 338.66666 252.93336 340.0 254.0381C341.33334 255.14282 342.66666 256.24756 344.0 257.35226C345.33334 258.457 346.66666 259.56174 348.0 260.66644C349.33334 261.77118 350.66666 262.87592 352.0 263.98062C353.33334 265.08536 354.66666 266.1901 356.0 267.2948C357.33334 268.39954 358.66666 269.50427 360.0 270.60898C361.33334 271.7137 362.66666 272.81845 364.0 273.92316C365.33334 275.0279 366.66666 276.13263 368.0 277.23734C369.33334 278.34207 370.66666 279.4468 372.0 280.5515C373.33334 281.65625 374.66666 282.761 376.0 283.8657C377.33334 284.97043 378.66666 286.07516 380.0 287.17987C381.33334 288.2846 382.66666 289.3893 384.0 290.49405C385.33334 291.5988 386.66666 292.7035 388.0 293.80823C389.33334 294.91296 390.66666 296.01767 392.0 297.1224C393.33334 298.22714 394.66666 299.33185 396.0 300.43658C397.33334 301.54132 398.66666 302.64603 400.0 303.75076C401.33334 304.8555 402.66666 305.9602 404.0 307.06494C405.33334 308.16968 406.66666 309.27438 408.0 310.37912C409.33334 311.48386 410.66666 312.58856 412.0 313.6933C413.33334 314.79803 414.66666 315.90274 416.0 317.00748C417.33334 318.1122 418.66666 319.21692 420.0 320.32166C421.33334 321.4264 422.66666 322.5311 424.0 323.63583C425.33334 324.74057 426.66666 325.84528 428.0 326.95C429.33334 328.05475 430.66666 329.15945 432.0 330.2642C433.33334 331.36893 434.66666 332.47363 436.0 333.57837C437.33334 334.6831 438.66666 335.7878 440.0 336.89255C441.33334 337.99728 442.66666 339.102 444.0 340.20673C445.33334 341.31143 446.66666 342.41617 448.0 343.5209C449.33334 344.6256 450.66666 345.73035 452.0 346.83508C453.33334 347.9398 454.66666 349.04453 456.0 350.14926C457.33334 351.25397 458.66666 352.3587 460.0 353.46344C461.33334 354.56815 462.66666 355.67288 464.0 356.77762C465.33334 357.88232 466.66666 358.98706 468.0 360.0918C469.33334 361.1965 470.66666 362.30124 472.0 363.40598C473.33334 364.51068 474.66666 365.61542 476.0 366.72015C477.33334 367.82486 478.66666 368.9296 480.0 370.03433C481.33334 371.13904 482.66666 372.24377 484.0 373.3485C485.33334 374.45322 486.66666 375.55795 488.0 376.6627C489.33334 377.7674 490.66666 378.87213 492.0 379.97687C493.33334 381.08157 494.66666 382.1863 496.0 383.29105C497.33334 384.39575 498.66666 385.5005 500.0 386.60522C501.33334 387.70993 502.66666 388.81467 504.0 389.9194C505.33334 391.0241 506.66666 392.12885 508.0 393.23358C509.33334 394.3383 510.66666 395.44302 512.0 396.54773C513.3333 397.65247 514.6667 398.7572 516.0 399.8619C517.3333 400.96664 518.6667 402.07138 520.0 403.1761C521.3333 404.28082 522.6667 405.38556 524.0 406.49026C525.3333 407.595 526.6667 408.69974 528.0 409.80444C529.3333 410.90918 530.6667 412.01392 532.0 413.11862C533.3333 414.22336 534.6667 415.3281 536.0 416.4328C537.3333 417.53754 538.6667 418.64227 540.0 419.74698C541.3333 420.8517 542.6667 421.95645 544.0 423.06116C545.3333 424.1659 546.6667 425.27063 548.0 426.37534C549.3333 427.48007 550.6667 428.5848 552.0 429.6895C553.3333 430.79425 554.6667 431.899 556.0 433.0037C557.3333 434.10843 558.6667 435.21317 560.0 436.31787C561.3333 437.4226 562.6667 438.52734 564.0 439.63205C565.3333 440.7368 566.6667 441.84152 568.0 442.94623C569.3333 444.05096 570.6667 445.1557 572.0 446.2604C573.3333 447.36514 574.6667 448.46985 576.0 449.5746C577.3333 450.67932 580.0 452.88876 580.0 452.88876" fill-rule="nonzero"/><path fill="#4285f4" clip-path="url(#id_0)" d="M95.858185 61.916668C95.858185 64.40195 93.84346 66.416664 91.358185 66.416664C88.8729 66.416664 86.858185 64.40195 86.858185 61.916668C86.858185 59.431385 88.8729 57.416668 91.358185 57.416668C93.84346 57.416668 95.858185 59.431385 95.858185 61.916668Z" fill-rule="nonzero"/><path fill="#4285f4" clip-path="url(#id_0)" d="M136.6477 91.38412C136.6477 93.8694 134.63298 95.88412 132.1477 95.88412C129.66241 95.88412 127.6477 93.8694 127.6477 91.38412C127.6477 88.898834 129.66241 86.88412 132.1477 86.88412C134.63298 86.88412 136.6477 88.898834 136.6477 91.38412Z" fill-rule="nonzero"/><path fill="#4285f4" clip-path="url(#id_0)" d="M160.50804 105.62709C160.50804 108.11237 158.49332 110.12709 156.00804 110.12709C153.52275 110.12709 151.50804 108.11237 151.50804 105.62709C151.50804 103.14181 153.52275 101.12709 156.00804 101.12709C158.49332 101.12709 160.50804 103.14181 160.50804 105.62709Z" fill-rule="nonzero"/><path fill="#4285f4" clip-path="url(#id_0)" d="M177.43721 117.73377C177.43721 120.219055 175.4225 122.23377 172.93721 122.23377C170.45193 122.23377 168.43721 120.219055 168.43721 117.73377C168.43721 115.24849 170.45193 113.23377 172.93721 113.23377C175.4225 113.23377 177.43721 115.24849 177.43721 117.73377Z" fill-rule="nonzero"/><path fill="#4285f4" clip-path="url(#id_0)" d="M190.56851 125.76998C190.56851 128.25526 188.55379 130.26999 186.06851 130.26999C183.58322 130.26999 181.56851 128.25526 181.56851 125.76998C181.56851 123.2847 183.58322 121.26998 186.06851 121.26998C188.55379 121.26998 190.56851 123.2847 190.56851 125.76998Z" fill-rule="nonzero"/><path fill="#4285f4" clip-path="url(#id_0)" d="M201.29755 130.50584C201.29755 132.99112 199.28284 135.00584 196.79755 135.00584C194.31227 135.00584 192.29755 132.99112 192.29755 130.50584C192.29755 128.02057 194.31227 126.005844 196.79755 126.005844C199.28284 126.005844 201.29755 128.02057 201.29755 130.50584Z" fill-rule="nonzero"/><path fill="#4285f4" clip-path="url(#id_0)" d="M210.36884 137.5676C210.36884 140.05287 208.35411 142.0676 205.86884 142.0676C203.38354 142.0676 201.36884 140.05287 201.36884 137.5676C201.36884 135.0823 203.38354 133.0676 205.86884 133.0676C208.35411 133.0676 210.36884 135.0823 210.36884 137.5676Z" fill-rule="nonzero"/><path fill="#4285f4" clip-path="url(#id_0)" d="M218.22673 145.09311C218.22673 147.57838 216.212 149.59311 213.72673 149.59311C211.24146 149.59311 209.22673 147.57838 209.22673 145.09311C209.22673 142.60782 211.24146 140.59311 213.72673 140.59311C216.212 140.59311 218.22673 142.60782 218.22673 145.09311Z" fill-rule="nonzero"/><path fill="#4285f4" clip-path="url(#id_0)" d="M225.15788 146.65686C225.15788 149.14215 223.14317 151.15686 220.65788 151.15686C218.1726 151.15686 216.15788 149.14215 216.15788 146.65686C216.15788 144.17159 218.1726 142.15686 220.65788 142.15686C223.14317 142.15686 225.15788 144.17159 225.15788 146.65686Z" fill-rule="nonzero"/><path fill="#4285f4" clip-path="url(#id_0)" d="M231.35802 150.84583C231.35802 153.3311 229.3433 155.34583 226.85802 155.34583C224.37274 155.34583 222.35802 153.3311 222.35802 150.84583C222.35802 148.36053 224.37274 146.34583 226.85802 146.34583C229.3433 146.34583 231.35802 148.36053 231.35802 150.84583Z" fill-rule="nonzero"/><path fill="#4285f4" clip-path="url(#id_0)" d="M236.96672 148.31615C236.96672 150.80142 234.95201 152.81615 232.46672 152.81615C229.98145 152.81615 227.96672 150.80142 227.96672 148.31615C227.96672 145.83086 229.98145 143.81615 232.46672 143.81615C234.95201 143.81615 236.96672 145.83086 236.96672 148.31615Z" fill-rule="nonzero"/><path fill="#4285f4" clip-path="url(#id_0)" d="M242.08707 151.6303C242.08707 154.11557 240.07234 156.1303 237.58707 156.1303C235.10179 156.1303 233.08707 154.11557 233.08707 151.6303C233.08707 149.145 235.10179 147.1303 237.58707 147.1303C240.07234 147.1303 242.08707 149.145 242.08707 151.6303Z" fill-rule="nonzero"/><path fill="#4285f4" clip-path="url(#id_0)" d="M246.79733 158.88525C246.79733 161.37053 244.78261 163.38525 242.29733 163.38525C239.81204 163.38525 237.79733 161.37053 237.79733 158.88525C237.79733 156.39996 239.81204 154.38525 242.29733 154.38525C244.78261 154.38525 246.79733 156.39996 246.79733 158.88525Z" fill-rule="nonzero"/><path fill="#4285f4" clip-path="url(#id_0)" d="M251.15834 159.63805C251.15834 162.12334 249.14363 164.13805 246.65834 164.13805C244.17307 164.13805 242.15834 162.12334 242.15834 159.63805C242.15834 157.15277 244.17307 155.13805 246.65834 155.13805C249.14363 155.13805 251.15834 157.15277 251.15834 159.63805Z" fill-rule="nonzero"/><path fill="#4285f4" clip-path="url(#id_0)" d="M255.21835 168.81204C255.21835 171.29732 253.20364 173.31204 250.71835 173.31204C248.23308 173.31204 246.21835 171.29732 246.21835 168.81204C246.21835 166.32675 248.23308 164.31204 250.71835 164.31204C253.20364 164.31204 255.21835 166.32675 255.21835 168.81204Z" fill-rule="nonzero"/><path fill="#4285f4" clip-path="url(#id_0)" d="M259.01624 170.58011C259.01624 173.06538 257.00153 175.08011 254.51625 175.08011C252.03096 175.08011 250.01625 173.06538 250.01625 170.58011C250.01625 168.09482 252.03096 166.08011 254.51625 166.08011C257.00153 166.08011 259.01624 168.09482 259.01624 170.58011Z" fill-rule="nonzero"/><path fill="#4285f4" clip-path="url(#id_0)" d="M262.5838 170.58011C262.5838 173.06538 260.5691 175.08011 258.0838 175.08011C255.59853 175.08011 253.58382 173.06538 253.58382 170.58011C253.58382 168.09482 255.59853 166.08011 258.0838 166.08011C260.5691 166.08011 262.5838 168.09482 262.5838 170.58011Z" fill-rule="nonzero"/><path fill="#4285f4" clip-path="url(#id_0)" d="M265.94742 171.27396C265.94742 173.75923 263.93268 175.77396 261.44742 175.77396C258.96213 175.77396 256.94742 173.75923 256.94742 171.27396C256.94742 168.78868 258.96213 166.77396 261.44742 166.77396C263.93268 166.77396 265.94742 168.78868 265.94742 171.27396Z" fill-rule="nonzero"/><path fill="#4285f4" clip-path="url(#id_0)" d="M269.1291 178.47392C269.1291 180.9592 267.11438 182.97392 264.6291 182.97392C262.1438 182.97392 260.1291 180.9592 260.1291 178.47392C260.1291 175.98865 262.1438 173.97392 264.6291 173.97392C267.11438 173.97392 269.1291 175.98865 269.1291 178.47392Z" fill-rule="nonzero"/><path fill="#4285f4" clip-path="url(#id_0)" d="M272.14752 182.76485C272.14752 185.25012 270.1328 187.26485 267.64752 187.26485C265.16226 187.26485 263.14752 185.25012 263.14752 182.76485C263.14752 180.27956 265.16226 178.26485 267.64752 178.26485C270.1328 178.26485 272.14752 180.27956 272.14752 182.76485Z" fill-rule="nonzero"/><path fill="#4285f4" clip-path="url(#id_0)" d="M275.01868 180.04514C275.01868 182.53041 273.00397 184.54514 270.51868 184.54514C268.03342 184.54514 266.01868 182.53041 266.01868 180.04514C266.01868 177.55986 268.03342 175.54514 270.51868 175.54514C273.00397 175.54514 275.01868 177.55986 275.01868 180.04514Z" fill-rule="nonzero"/><path fill="#4285f4" clip-path="url(#id_0)" d="M277.75623 182.40962C277.75623 184.8949 275.74152 186.90962 273.25623 186.90962C270.77097 186.90962 268.75623 184.8949 268.75623 182.40962C268.75623 179.92433 270.77097 177.90962 273.25623 177.90962C275.74152 177.90962 277.75623 179.92433 277.75623 182.40962Z" fill-rule="nonzero"/><path fill="#4285f4" clip-path="url(#id_0)" d="M280.37207 185.39062C280.37207 187.8759 278.35736 189.89062 275.87207 189.89062C273.3868 189.89062 271.37207 187.8759 271.37207 185.39062C271.37207 182.90533 273.3868 180.89062 275.87207 180.89062C278.35736 180.89062 280.37207 182.90533 280.37207 185.39062Z" fill-rule="nonzero"/><path fill="#4285f4" clip-path="url(#id_0)" d="M282.8766 194.14305C282.8766 196.62834 280.86188 198.64305 278.3766 198.64305C275.8913 198.64305 273.8766 196.62834 273.8766 194.14305C273.8766 191.65778 275.8913 189.64305 278.3766 189.64305C280.86188 189.64305 282.8766 191.65778 282.8766 194.14305Z" fill-rule="nonzero"/><path fill="#4285f4" clip-path="url(#id_0)" d="M285.27884 194.14305C285.27884 196.62834 283.2641 198.64305 280.77884 198.64305C278.29355 198.64305 276.27884 196.62834 276.27884 194.14305C276.27884 191.65778 278.29355 189.64305 280.77884 189.64305C283.2641 189.64305 285.27884 191.65778 285.27884 194.14305Z" fill-rule="nonzero"/><path fill="#4285f4" clip-path="url(#id_0)" d="M287.58685 184.61415C287.58685 187.09944 285.5721 189.11415 283.08685 189.11415C280.60156 189.11415 278.58685 187.09944 278.58685 184.61415C278.58685 182.12888 280.60156 180.11415 283.08685 180.11415C285.5721 180.11415 287.58685 182.12888 287.58685 184.61415Z" fill-rule="nonzero"/><path fill="#4285f4" clip-path="url(#id_0)" d="M289.80774 195.25237C289.80774 197.73766 287.79303 199.75237 285.30774 199.75237C282.82245 199.75237 280.80774 197.73766 280.80774 195.25237C280.80774 192.76709 282.82245 190.75237 285.30774 190.75237C287.79303 190.75237 289.80774 192.76709 289.80774 195.25237Z" fill-rule="nonzero"/><path fill="#4285f4" clip-path="url(#id_0)" d="M291.94788 191.55305C291.94788 194.03833 289.93314 196.05305 287.44788 196.05305C284.9626 196.05305 282.94788 194.03833 282.94788 191.55305C282.94788 189.06778 284.9626 187.05305 287.44788 187.05305C289.93314 187.05305 291.94788 189.06778 291.94788 191.55305Z" fill-rule="nonzero"/><path fill="#4285f4" clip-path="url(#id_0)" d="M294.01288 200.89485C294.01288 203.38013 291.99817 205.39485 289.51288 205.39485C287.0276 205.39485 285.01288 203.38013 285.01288 200.89485C285.01288 198.40956 287.0276 196.39485 289.51288 196.39485C291.99817 196.39485 294.01288 198.40956 294.01288 200.89485Z" fill-rule="nonzero"/><path fill="#4285f4" clip-path="url(#id_0)" d="M296.00787 203.8355C296.00787 206.32077 293.99316 208.3355 291.50787 208.3355C289.02258 208.3355 287.00787 206.32077 287.00787 203.8355C287.00787 201.3502 289.02258 199.3355 291.50787 199.3355C293.99316 199.3355 296.00787 201.3502 296.00787 203.8355Z" fill-rule="nonzero"/><path fill="#4285f4" clip-path="url(#id_0)" d="M297.93744 195.82448C297.93744 198.30977 295.92273 200.32448 293.43744 200.32448C290.95218 200.32448 288.93744 198.30977 288.93744 195.82448C288.93744 193.3392 290.95218 191.32448 293.43744 191.32448C295.92273 191.32448 297.93744 193.3392 297.93744 195.82448Z" fill-rule="nonzero"/><path fill="#4285f4" clip-path="url(#id_0)" d="M299.80576 210.88756C299.80576 213.37283 297.79105 215.38756 295.30576 215.38756C292.82047 215.38756 290.80576 213.37283 290.80576 210.88756C290.80576 208.40227 292.82047 206.38756 295.30576 206.38756C297.79105 206.38756 299.80576 208.40227 299.80576 210.88756Z" fill-rule="nonzero"/><path fill="#4285f4" clip-path="url(#id_0)" d="M301.61658 201.60071C301.61658 204.086 299.60187 206.10071 297.11658 206.10071C294.6313 206.10071 292.61658 204.086 292.61658 201.60071C292.61658 199.11543 294.6313 197.10071 297.11658 197.10071C299.60187 197.10071 301.61658 199.11543 301.61658 201.60071Z" fill-rule="nonzero"/><path fill="#4285f4" clip-path="url(#id_0)" d="M303.37332 204.6232C303.37332 207.10849 301.3586 209.1232 298.87332 209.1232C296.38806 209.1232 294.37332 207.10849 294.37332 204.6232C294.37332 202.13792 296.38806 200.1232 298.87332 200.1232C301.3586 200.1232 303.37332 202.13792 303.37332 204.6232Z" fill-rule="nonzero"/><path fill="#4285f4" clip-path="url(#id_0)" d="M305.07916 203.8355C305.07916 206.32077 303.06442 208.3355 300.57916 208.3355C298.09387 208.3355 296.07916 206.32077 296.07916 203.8355C296.07916 201.3502 298.09387 199.3355 300.57916 199.3355C303.06442 199.3355 305.07916 201.3502 305.07916 203.8355Z" fill-rule="nonzero"/><path fill="#4285f4" clip-path="url(#id_0)" d="M306.7369 211.91313C306.7369 214.3984 304.7222 216.41313 302.2369 216.41313C299.75165 216.41313 297.7369 214.3984 297.7369 211.91313C297.7369 209.42784 299.75165 207.41313 302.2369 207.41313C304.7222 207.41313 306.7369 209.42784 306.7369 211.91313Z" fill-rule="nonzero"/><path fill="#4285f4" clip-path="url(#id_0)" d="M308.34927 205.43445C308.34927 207.91972 306.33453 209.93445 303.84927 209.93445C301.36398 209.93445 299.34927 207.91972 299.34927 205.43445C299.34927 202.94916 301.36398 200.93445 303.84927 200.93445C306.33453 200.93445 308.34927 202.94916 308.34927 205.43445Z" fill-rule="nonzero"/><path fill="#4285f4" clip-path="url(#id_0)" d="M309.9186 210.88756C309.9186 213.37283 307.9039 215.38756 305.4186 215.38756C302.93332 215.38756 300.9186 213.37283 300.9186 210.88756C300.9186 208.40227 302.93332 206.38756 305.4186 206.38756C307.9039 206.38756 309.9186 208.40227 309.9186 210.88756Z" fill-rule="nonzero"/><path fill="#4285f4" clip-path="url(#id_0)" d="M311.44717 203.8355C311.44717 206.32077 309.43246 208.3355 306.94717 208.3355C304.46188 208.3355 302.44717 206.32077 302.44717 203.8355C302.44717 201.3502 304.46188 199.3355 306.94717 199.3355C309.43246 199.3355 311.44717 201.3502 311.44717 203.8355Z" fill-rule="nonzero"/><path fill="#4285f4" clip-path="url(#id_0)" d="M312.93704 221.90584C312.93704 224.39111 310.92233 226.40584 308.43704 226.40584C305.95178 226.40584 303.93704 224.39111 303.93704 221.90584C303.93704 219.42055 305.95178 217.40584 308.43704 217.40584C310.92233 217.40584 312.93704 219.42055 312.93704 221.90584Z" fill-rule="nonzero"/><path fill="#4285f4" clip-path="url(#id_0)" d="M314.39014 225.10652C314.39014 227.5918 312.37543 229.60652 309.89014 229.60652C307.40485 229.60652 305.39014 227.5918 305.39014 225.10652C305.39014 222.62123 307.40485 220.60652 309.89014 220.60652C312.37543 220.60652 314.39014 222.62123 314.39014 225.10652Z" fill-rule="nonzero"/><path fill="#4285f4" clip-path="url(#id_0)" d="M315.8082 215.24477C315.8082 217.73006 313.7935 219.74477 311.3082 219.74477C308.8229 219.74477 306.8082 217.73006 306.8082 215.24477C306.8082 212.75949 308.8229 210.74477 311.3082 210.74477C313.7935 210.74477 315.8082 212.75949 315.8082 215.24477Z" fill-rule="nonzero"/><path fill="#4285f4" clip-path="url(#id_0)" d="M317.1929 232.9241C317.1929 235.4094 315.17816 237.4241 312.6929 237.4241C310.2076 237.4241 308.1929 235.4094 308.1929 232.9241C308.1929 230.43883 310.2076 228.4241 312.6929 228.4241C315.17816 228.4241 317.1929 230.43883 317.1929 232.9241Z" fill-rule="nonzero"/><path fill="#4285f4" clip-path="url(#id_0)" d="M318.54575 223.45908C318.54575 225.94437 316.53104 227.95908 314.04575 227.95908C311.5605 227.95908 309.54575 225.94437 309.54575 223.45908C309.54575 220.9738 311.5605 218.95908 314.04575 218.95908C316.53104 218.95908 318.54575 220.9738 318.54575 223.45908Z" fill-rule="nonzero"/><path fill="#4285f4" clip-path="url(#id_0)" d="M319.86823 219.04272C319.86823 221.528 317.8535 223.54272 315.36823 223.54272C312.88293 223.54272 310.86823 221.528 310.86823 219.04272C310.86823 216.55743 312.88293 214.54272 315.36823 214.54272C317.8535 214.54272 319.86823 216.55743 319.86823 219.04272Z" fill-rule="nonzero"/><path fill="#4285f4" clip-path="url(#id_0)" d="M321.1616 232.9241C321.1616 235.4094 319.14688 237.4241 316.6616 237.4241C314.17633 237.4241 312.1616 235.4094 312.1616 232.9241C312.1616 230.43883 314.17633 228.4241 316.6616 228.4241C319.14688 228.4241 321.1616 230.43883 321.1616 232.9241Z" fill-rule="nonzero"/><path fill="#4285f4" clip-path="url(#id_0)" d="M322.4272 232.9241C322.4272 235.4094 320.41245 237.4241 317.9272 237.4241C315.4419 237.4241 313.4272 235.4094 313.4272 232.9241C313.4272 230.43883 315.4419 228.4241 317.9272 228.4241C320.41245 228.4241 322.4272 230.43883 322.4272 232.9241Z" fill-rule="nonzero"/><path fill="#4285f4" clip-path="url(#id_0)" d="M323.6661 230.749C323.6661 233.23428 321.65137 235.249 319.1661 235.249C316.68082 235.249 314.6661 233.23428 314.6661 230.749C314.6661 228.26372 316.68082 226.249 319.1661 226.249C321.65137 226.249 323.6661 228.26372 323.6661 230.749Z" fill-rule="nonzero"/><path fill="#4285f4" clip-path="url(#id_0)" d="M324.8795 225.10652C324.8795 227.5918 322.86475 229.60652 320.3795 229.60652C317.8942 229.60652 315.8795 227.5918 315.8795 225.10652C315.8795 222.62123 317.8942 220.60652 320.3795 220.60652C322.86475 220.60652 324.8795 222.62123 324.8795 225.10652Z" fill-rule="nonzero"/><path fill="#4285f4" clip-path="url(#id_0)" d="M326.06833 237.87859C326.06833 240.36388 324.05362 242.37859 321.56833 242.37859C319.08307 242.37859 317.06833 240.36388 317.06833 237.87859C317.06833 235.39331 319.08307 233.37859 321.56833 233.37859C324.05362 233.37859 326.06833 235.39331 326.06833 237.87859Z" fill-rule="nonzero"/><path fill="#4285f4" clip-path="url(#id_0)" d="M327.23367 247.57103C327.23367 250.0563 325.21893 252.07103 322.73367 252.07103C320.24838 252.07103 318.23367 250.0563 318.23367 247.57103C318.23367 245.08574 320.24838 243.07103 322.73367 243.07103C325.21893 243.07103 327.23367 245.08574 327.23367 247.57103Z" fill-rule="nonzero"/><path fill="#4285f4" clip-path="url(#id_0)" d="M328.37637 243.94238C328.37637 246.42767 326.36163 248.44238 323.87637 248.44238C321.39108 248.44238 319.37637 246.42767 319.37637 243.94238C319.37637 241.4571 321.39108 239.44238 323.87637 239.44238C326.36163 239.44238 328.37637 241.4571 328.37637 243.94238Z" fill-rule="nonzero"/><path fill="#4285f4" clip-path="url(#id_0)" d="M329.49728 232.9241C329.49728 235.4094 327.48257 237.4241 324.99728 237.4241C322.512 237.4241 320.49728 235.4094 320.49728 232.9241C320.49728 230.43883 322.512 228.4241 324.99728 228.4241C327.48257 228.4241 329.49728 230.43883 329.49728 232.9241Z" fill-rule="nonzero"/><path fill="#4285f4" clip-path="url(#id_0)" d="M330.59726 247.57103C330.59726 250.0563 328.58255 252.07103 326.09726 252.07103C323.61197 252.07103 321.59726 250.0563 321.59726 247.57103C321.59726 245.08574 323.61197 243.07103 326.09726 243.07103C328.58255 243.07103 330.59726 245.08574 330.59726 247.57103Z" fill-rule="nonzero"/><path fill="#4285f4" clip-path="url(#id_0)" d="M331.67703 235.28859C331.67703 237.77388 329.66232 239.78859 327.17703 239.78859C324.69177 239.78859 322.67703 237.77388 322.67703 235.28859C322.67703 232.80331 324.69177 230.78859 327.17703 230.78859C329.66232 230.78859 331.67703 232.80331 331.67703 235.28859Z" fill-rule="nonzero"/><path fill="#4285f4" clip-path="url(#id_0)" d="M332.73737 237.87859C332.73737 240.36388 330.72266 242.37859 328.23737 242.37859C325.7521 242.37859 323.73737 240.36388 323.73737 237.87859C323.73737 235.39331 325.7521 233.37859 328.23737 233.37859C330.72266 233.37859 332.73737 235.39331 332.73737 237.87859Z" fill-rule="nonzero"/><path fill="#4285f4" clip-path="url(#id_0)" d="M333.77893 247.57103C333.77893 250.0563 331.76422 252.07103 329.27893 252.07103C326.79367 252.07103 324.77893 250.0563 324.77893 247.57103C324.77893 245.08574 326.79367 243.07103 329.27893 243.07103C331.76422 243.07103 333.77893 245.08574 333.77893 247.57103Z" fill-rule="nonzero"/><path fill="#4285f4" clip-path="url(#id_0)" d="M334.8024 247.57103C334.8024 250.0563 332.78766 252.07103 330.3024 252.07103C327.8171 252.07103 325.8024 250.0563 325.8024 247.57103C325.8024 245.08574 327.8171 243.07103 330.3024 243.07103C332.78766 243.07103 334.8024 245.08574 334.8024 247.57103Z" fill-rule="nonzero"/><path fill="#4285f4" clip-path="url(#id_0)" d="M335.80835 240.7417C335.80835 243.22699 333.79364 245.2417 331.30835 245.2417C328.82306 245.2417 326.80835 243.22699 326.80835 240.7417C326.80835 238.25642 328.82306 236.2417 331.30835 236.2417C333.79364 236.2417 335.80835 238.25642 335.80835 240.7417Z" fill-rule="nonzero"/><path fill="#4285f4" clip-path="url(#id_0)" d="M336.7974 237.87859C336.7974 240.36388 334.78268 242.37859 332.2974 242.37859C329.8121 242.37859 327.7974 240.36388 327.7974 237.87859C327.7974 235.39331 329.8121 233.37859 332.2974 233.37859C334.78268 233.37859 336.7974 235.39331 336.7974 237.87859Z" fill-rule="nonzero"/><path fill="#4285f4" clip-path="url(#id_0)" d="M337.77008 256.71445C337.77008 259.19974 335.75537 261.21445 333.27008 261.21445C330.78482 261.21445 328.77008 259.19974 328.77008 256.71445C328.77008 254.22919 330.78482 252.21446 333.27008 252.21446C335.75537 252.21446 337.77008 254.22919 337.77008 256.71445Z" fill-rule="nonzero"/><path fill="#4285f4" clip-path="url(#id_0)" d="M338.72696 262.77826C338.72696 265.26355 336.71225 267.27826 334.22696 267.27826C331.7417 267.27826 329.72696 265.26355 329.72696 262.77826C329.72696 260.29297 331.7417 258.27826 334.22696 258.27826C336.71225 258.27826 338.72696 260.29297 338.72696 262.77826Z" fill-rule="nonzero"/><path fill="#4285f4" clip-path="url(#id_0)" d="M339.66855 240.7417C339.66855 243.22699 337.6538 245.2417 335.16855 245.2417C332.68326 245.2417 330.66855 243.22699 330.66855 240.7417C330.66855 238.25642 332.68326 236.2417 335.16855 236.2417C337.6538 236.2417 339.66855 238.25642 339.66855 240.7417Z" fill-rule="nonzero"/><path fill="#4285f4" clip-path="url(#id_0)" d="M340.59528 251.75998C340.59528 254.24525 338.58057 256.25998 336.09528 256.25998C333.61 256.25998 331.59528 254.24525 331.59528 251.75998C331.59528 249.2747 333.61 247.25998 336.09528 247.25998C338.58057 247.25998 340.59528 249.2747 340.59528 251.75998Z" fill-rule="nonzero"/><path fill="#4285f4" clip-path="url(#id_0)" d="M341.50766 256.71445C341.50766 259.19974 339.49292 261.21445 337.00766 261.21445C334.52237 261.21445 332.50766 259.19974 332.50766 256.71445C332.50766 254.22919 334.52237 252.21446 337.00766 252.21446C339.49292 252.21446 341.50766 254.22919 341.50766 256.71445Z" fill-rule="nonzero"/><path fill="#4285f4" clip-path="url(#id_0)" d="M342.4061 247.57103C342.4061 250.0563 340.3914 252.07103 337.9061 252.07103C335.4208 252.07103 333.4061 250.0563 333.4061 247.57103C333.4061 245.08574 335.4208 243.07103 337.9061 243.07103C340.3914 243.07103 342.4061 245.08574 342.4061 247.57103Z" fill-rule="nonzero"/><path fill="#4285f4" clip-path="url(#id_0)" d="M343.29102 262.77826C343.29102 265.26355 341.2763 267.27826 338.79102 267.27826C336.30576 267.27826 334.29102 265.26355 334.29102 262.77826C334.29102 260.29297 336.30576 258.27826 338.79102 258.27826C341.2763 258.27826 343.29102 260.29297 343.29102 262.77826Z" fill-rule="nonzero"/><path fill="#4285f4" clip-path="url(#id_0)" d="M344.16284 247.57103C344.16284 250.0563 342.14813 252.07103 339.66284 252.07103C337.17755 252.07103 335.16284 250.0563 335.16284 247.57103C335.16284 245.08574 337.17755 243.07103 339.66284 243.07103C342.14813 243.07103 344.16284 245.08574 344.16284 247.57103Z" fill-rule="nonzero"/><path fill="#4285f4" clip-path="url(#id_0)" d="M345.02194 256.71445C345.02194 259.19974 343.00723 261.21445 340.52194 261.21445C338.03665 261.21445 336.02194 259.19974 336.02194 256.71445C336.02194 254.22919 338.03665 252.21446 340.52194 252.21446C343.00723 252.21446 345.02194 254.22919 345.02194 256.71445Z" fill-rule="nonzero"/><path fill="#4285f4" clip-path="url(#id_0)" d="M345.86868 270.59586C345.86868 273.08115 343.85394 275.09586 341.36868 275.09586C338.8834 275.09586 336.86868 273.08115 336.86868 270.59586C336.86868 268.11057 338.8834 266.09586 341.36868 266.09586C343.85394 266.09586 345.86868 268.11057 345.86868 270.59586Z" fill-rule="nonzero"/><path fill="#4285f4" clip-path="url(#id_0)" d="M346.7034 270.59586C346.7034 273.08115 344.68866 275.09586 342.2034 275.09586C339.7181 275.09586 337.7034 273.08115 337.7034 270.59586C337.7034 268.11057 339.7181 266.09586 342.2034 266.09586C344.68866 266.09586 346.7034 268.11057 346.7034 270.59586Z" fill-rule="nonzero"/><path fill="#4285f4" clip-path="url(#id_0)" d="M347.52643 262.77826C347.52643 265.26355 345.51172 267.27826 343.02643 267.27826C340.54117 267.27826 338.52643 265.26355 338.52643 262.77826C338.52643 260.29297 340.54117 258.27826 343.02643 258.27826C345.51172 258.27826 347.52643 260.29297 347.52643 262.77826Z" fill-rule="nonzero"/><path fill="#4285f4" clip-path="url(#id_0)" d="M348.33813 262.77826C348.33813 265.26355 346.32343 267.27826 343.83813 267.27826C341.35284 267.27826 339.33813 265.26355 339.33813 262.77826C339.33813 260.29297 341.35284 258.27826 343.83813 258.27826C346.32343 258.27826 348.33813 260.29297 348.33813 262.77826Z" fill-rule="nonzero"/><path fill="#4285f4" clip-path="url(#id_0)" d="M349.1388 251.75998C349.1388 254.24525 347.12405 256.25998 344.6388 256.25998C342.1535 256.25998 340.1388 254.24525 340.1388 251.75998C340.1388 249.2747 342.1535 247.25998 344.6388 247.25998C347.12405 247.25998 349.1388 249.2747 349.1388 251.75998Z" fill-rule="nonzero"/><path fill="#4285f4" clip-path="url(#id_0)" d="M349.92868 270.59586C349.92868 273.08115 347.91397 275.09586 345.42868 275.09586C342.9434 275.09586 340.92868 273.08115 340.92868 270.59586C340.92868 268.11057 342.9434 266.09586 345.42868 266.09586C347.91397 266.09586 349.92868 268.11057 349.92868 270.59586Z" fill-rule="nonzero"/><path fill="#4285f4" clip-path="url(#id_0)" d="M351.4774 251.75998C351.4774 254.24525 349.46265 256.25998 346.9774 256.25998C344.4921 256.25998 342.4774 254.24525 342.4774 251.75998C342.4774 249.2747 344.4921 247.25998 346.9774 247.25998C349.46265 247.25998 351.4774 249.2747 351.4774 251.75998Z" fill-rule="nonzero"/><path fill="#4285f4" clip-path="url(#id_0)" d="M352.98636 281.61414C352.98636 284.0994 350.97162 286.11414 348.48636 286.11414C346.00107 286.11414 343.98636 284.0994 343.98636 281.61414C343.98636 279.12885 346.00107 277.11414 348.48636 277.11414C350.97162 277.11414 352.98636 279.12885 352.98636 281.61414Z" fill-rule="nonzero"/><path fill="#4285f4" clip-path="url(#id_0)" d="M354.45758 247.57103C354.45758 250.0563 352.44287 252.07103 349.95758 252.07103C347.47232 252.07103 345.45758 250.0563 345.45758 247.57103C345.45758 245.08574 347.47232 243.07103 349.95758 243.07103C352.44287 243.07103 354.45758 245.08574 354.45758 247.57103Z" fill-rule="nonzero"/><path fill="#4285f4" clip-path="url(#id_0)" d="M355.17966 281.61414C355.17966 284.0994 353.16495 286.11414 350.67966 286.11414C348.19437 286.11414 346.17966 284.0994 346.17966 281.61414C346.17966 279.12885 348.19437 277.11414 350.67966 277.11414C353.16495 277.11414 355.17966 279.12885 355.17966 281.61414Z" fill-rule="nonzero"/><path fill="#4285f4" clip-path="url(#id_0)" d="M355.89294 281.61414C355.89294 284.0994 353.87823 286.11414 351.39294 286.11414C348.90768 286.11414 346.89294 284.0994 346.89294 281.61414C346.89294 279.12885 348.90768 277.11414 351.39294 277.11414C353.87823 277.11414 355.89294 279.12885 355.89294 281.61414Z" fill-rule="nonzero"/><path fill="#4285f4" clip-path="url(#id_0)" d="M356.59772 281.61414C356.59772 284.0994 354.583 286.11414 352.09772 286.11414C349.61243 286.11414 347.59772 284.0994 347.59772 281.61414C347.59772 279.12885 349.61243 277.11414 352.09772 277.11414C354.583 277.11414 356.59772 279.12885 356.59772 281.61414Z" fill-rule="nonzero"/><path fill="#4285f4" clip-path="url(#id_0)" d="M357.29413 281.61414C357.29413 284.0994 355.27942 286.11414 352.79413 286.11414C350.30887 286.11414 348.29413 284.0994 348.29413 281.61414C348.29413 279.12885 350.30887 277.11414 352.79413 277.11414C355.27942 277.11414 357.29413 279.12885 357.29413 281.61414Z" fill-rule="nonzero"/><path fill="#4285f4" clip-path="url(#id_0)" d="M357.98242 300.45C357.98242 302.93527 355.96768 304.95 353.48242 304.95C350.99713 304.95 348.98242 302.93527 348.98242 300.45C348.98242 297.96472 350.99713 295.95 353.48242 295.95C355.96768 295.95 357.98242 297.96472 357.98242 300.45Z" fill-rule="nonzero"/><path fill="#4285f4" clip-path="url(#id_0)" d="M358.66272 281.61414C358.66272 284.0994 356.648 286.11414 354.16272 286.11414C351.67746 286.11414 349.66272 284.0994 349.66272 281.61414C349.66272 279.12885 351.67746 277.11414 354.16272 277.11414C356.648 277.11414 358.66272 279.12885 358.66272 281.61414Z" fill-rule="nonzero"/><path fill="#4285f4" clip-path="url(#id_0)" d="M359.33527 262.77826C359.33527 265.26355 357.32056 267.27826 354.83527 267.27826C352.34998 267.27826 350.33527 265.26355 350.33527 262.77826C350.33527 260.29297 352.34998 258.27826 354.83527 258.27826C357.32056 258.27826 359.33527 260.29297 359.33527 262.77826Z" fill-rule="nonzero"/><path fill="#4285f4" clip-path="url(#id_0)" d="M360.0002 262.77826C360.0002 265.26355 357.9855 267.27826 355.5002 267.27826C353.01492 267.27826 351.0002 265.26355 351.0002 262.77826C351.0002 260.29297 353.01492 258.27826 355.5002 258.27826C357.9855 258.27826 360.0002 260.29297 360.0002 262.77826Z" fill-rule="nonzero"/><path fill="#4285f4" clip-path="url(#id_0)" d="M360.6577 300.45C360.6577 302.93527 358.643 304.95 356.1577 304.95C353.67245 304.95 351.6577 302.93527 351.6577 300.45C351.6577 297.96472 353.67245 295.95 356.1577 295.95C358.643 295.95 360.6577 297.96472 360.6577 300.45Z" fill-rule="nonzero"/><path fill="#4285f4" clip-path="url(#id_0)" d="M361.30798 270.59586C361.30798 273.08115 359.29324 275.09586 356.80798 275.09586C354.3227 275.09586 352.30798 273.08115 352.30798 270.59586C352.30798 268.11057 354.3227 266.09586 356.80798 266.09586C359.29324 266.09586 361.30798 268.11057 361.30798 270.59586Z" fill-rule="nonzero"/><path fill="#4285f4" clip-path="url(#id_0)" d="M361.9511 300.45C361.9511 302.93527 359.9364 304.95 357.4511 304.95C354.96582 304.95 352.9511 302.93527 352.9511 300.45C352.9511 297.96472 354.96582 295.95 357.4511 295.95C359.9364 295.95 361.9511 297.96472 361.9511 300.45Z" fill-rule="nonzero"/><path fill="#4285f4" clip-path="url(#id_0)" d="M362.5873 281.61414C362.5873 284.0994 360.5726 286.11414 358.0873 286.11414C355.60202 286.11414 353.5873 284.0994 353.5873 281.61414C353.5873 279.12885 355.60202 277.11414 358.0873 277.11414C360.5726 277.11414 362.5873 279.12885 362.5873 281.61414Z" fill-rule="nonzero"/><path fill="#4285f4" clip-path="url(#id_0)" d="M363.21667 281.61414C363.21667 284.0994 361.20197 286.11414 358.71667 286.11414C356.2314 286.11414 354.21667 284.0994 354.21667 281.61414C354.21667 279.12885 356.2314 277.11414 358.71667 277.11414C361.20197 277.11414 363.21667 279.12885 363.21667 281.61414Z" fill-rule="nonzero"/><path fill="#4285f4" clip-path="url(#id_0)" d="M363.83942 300.45C363.83942 302.93527 361.8247 304.95 359.33942 304.95C356.85413 304.95 354.83942 302.93527 354.83942 300.45C354.83942 297.96472 356.85413 295.95 359.33942 295.95C361.8247 295.95 363.83942 297.96472 363.83942 300.45Z" fill-rule="nonzero"/><path fill="#4285f4" clip-path="url(#id_0)" d="M364.45563 300.45C364.45563 302.93527 362.4409 304.95 359.95563 304.95C357.47034 304.95 355.45563 302.93527 355.45563 300.45C355.45563 297.96472 357.47034 295.95 359.95563 295.95C362.4409 295.95 364.45563 297.96472 364.45563 300.45Z" fill-rule="nonzero"/><path fill="#4285f4" clip-path="url(#id_0)" d="M365.06543 270.59586C365.06543 273.08115 363.05072 275.09586 360.56543 275.09586C358.08014 275.09586 356.06543 273.08115 356.06543 270.59586C356.06543 268.11057 358.08014 266.09586 360.56543 266.09586C363.05072 266.09586 365.06543 268.11057 365.06543 270.59586Z" fill-rule="nonzero"/><path fill="#4285f4" clip-path="url(#id_0)" d="M365.669 281.61414C365.669 284.0994 363.65427 286.11414 361.169 286.11414C358.68372 286.11414 356.669 284.0994 356.669 281.61414C356.669 279.12885 358.68372 277.11414 361.169 277.11414C363.65427 277.11414 365.669 279.12885 365.669 281.61414Z" fill-rule="nonzero"/><path fill="#4285f4" clip-path="url(#id_0)" d="M366.26642 300.45C366.26642 302.93527 364.2517 304.95 361.76642 304.95C359.28116 304.95 357.26642 302.93527 357.26642 300.45C357.26642 297.96472 359.28116 295.95 361.76642 295.95C364.2517 295.95 366.26642 297.96472 366.26642 300.45Z" fill-rule="nonzero"/><path fill="#4285f4" clip-path="url(#id_0)" d="M366.85785 281.61414C366.85785 284.0994 364.84314 286.11414 362.35785 286.11414C359.8726 286.11414 357.85785 284.0994 357.85785 281.61414C357.85785 279.12885 359.8726 277.11414 362.35785 277.11414C364.84314 277.11414 366.85785 279.12885 366.85785 281.61414Z" fill-rule="nonzero"/><path fill="#4285f4" clip-path="url(#id_0)" d="M367.44342 281.61414C367.44342 284.0994 365.42868 286.11414 362.94342 286.11414C360.45813 286.11414 358.44342 284.0994 358.44342 281.61414C358.44342 279.12885 360.45813 277.11414 362.94342 277.11414C365.42868 277.11414 367.44342 279.12885 367.44342 281.61414Z" fill-rule="nonzero"/><path fill="#4285f4" clip-path="url(#id_0)" d="M368.0232 281.61414C368.0232 284.0994 366.00845 286.11414 363.5232 286.11414C361.0379 286.11414 359.0232 284.0994 359.0232 281.61414C359.0232 279.12885 361.0379 277.11414 363.5232 277.11414C366.00845 277.11414 368.0232 279.12885 368.0232 281.61414Z" fill-rule="nonzero"/><path fill="#4285f4" clip-path="url(#id_0)" d="M368.5973 300.45C368.5973 302.93527 366.58258 304.95 364.0973 304.95C361.61203 304.95 359.5973 302.93527 359.5973 300.45C359.5973 297.96472 361.61203 295.95 364.0973 295.95C366.58258 295.95 368.5973 297.96472 368.5973 300.45Z" fill-rule="nonzero"/><path fill="#4285f4" clip-path="url(#id_0)" d="M369.16586 281.61414C369.16586 284.0994 367.15115 286.11414 364.66586 286.11414C362.1806 286.11414 360.16586 284.0994 360.16586 281.61414C360.16586 279.12885 362.1806 277.11414 364.66586 277.11414C367.15115 277.11414 369.16586 279.12885 369.16586 281.61414Z" fill-rule="nonzero"/><path fill="#4285f4" clip-path="url(#id_0)" d="M369.729 300.45C369.729 302.93527 367.7143 304.95 365.229 304.95C362.7437 304.95 360.729 302.93527 360.729 300.45C360.729 297.96472 362.7437 295.95 365.229 295.95C367.7143 295.95 369.729 297.96472 369.729 300.45Z" fill-rule="nonzero"/><path fill="#4285f4" clip-path="url(#id_0)" d="M370.83936 281.61414C370.83936 284.0994 368.82465 286.11414 366.33936 286.11414C363.85406 286.11414 361.83936 284.0994 361.83936 281.61414C361.83936 279.12885 363.85406 277.11414 366.33936 277.11414C368.82465 277.11414 370.83936 279.12885 370.83936 281.61414Z" fill-rule="nonzero"/><path fill="#4285f4" clip-path="url(#id_0)" d="M371.38678 300.45C371.38678 302.93527 369.37204 304.95 366.88678 304.95C364.4015 304.95 362.38678 302.93527 362.38678 300.45C362.38678 297.96472 364.4015 295.95 366.88678 295.95C369.37204 295.95 371.38678 297.96472 371.38678 300.45Z" fill-rule="nonzero"/><path fill="#4285f4" clip-path="url(#id_0)" d="M371.92914 300.45C371.92914 302.93527 369.91443 304.95 367.42914 304.95C364.94388 304.95 362.92914 302.93527 362.92914 300.45C362.92914 297.96472 364.94388 295.95 367.42914 295.95C369.91443 295.95 371.92914 297.96472 371.92914 300.45Z" fill-rule="nonzero"/><path fill="#4285f4" clip-path="url(#id_0)" d="M373.5269 300.45C373.5269 302.93527 371.51218 304.95 369.0269 304.95C366.54163 304.95 364.5269 302.93527 364.5269 300.45C364.5269 297.96472 366.54163 295.95 369.0269 295.95C371.51218 295.95 373.5269 297.96472 373.5269 300.45Z" fill-rule="nonzero"/><path fill="#4285f4" clip-path="url(#id_0)" d="M374.05 281.61414C374.05 284.0994 372.03525 286.11414 369.55 286.11414C367.0647 286.11414 365.05 284.0994 365.05 281.61414C365.05 279.12885 367.0647 277.11414 369.55 277.11414C372.03525 277.11414 374.05 279.12885 374.05 281.61414Z" fill-rule="nonzero"/><path fill="#4285f4" clip-path="url(#id_0)" d="M374.56845 300.45C374.56845 302.93527 372.55374 304.95 370.06845 304.95C367.5832 304.95 365.56845 302.93527 365.56845 300.45C365.56845 297.96472 367.5832 295.95 370.06845 295.95C372.55374 295.95 374.56845 297.96472 374.56845 300.45Z" fill-rule="nonzero"/><path fill="#4285f4" clip-path="url(#id_0)" d="M375.0824 300.45C375.0824 302.93527 373.0677 304.95 370.5824 304.95C368.09714 304.95 366.0824 302.93527 366.0824 300.45C366.0824 297.96472 368.09714 295.95 370.5824 295.95C373.0677 295.95 375.0824 297.96472 375.0824 300.45Z" fill-rule="nonzero"/><path fill="#4285f4" clip-path="url(#id_0)" d="M375.59192 300.45C375.59192 302.93527 373.57718 304.95 371.09192 304.95C368.60663 304.95 366.59192 302.93527 366.59192 300.45C366.59192 297.96472 368.60663 295.95 371.09192 295.95C373.57718 295.95 375.59192 297.96472 375.59192 300.45Z" fill-rule="nonzero"/><path fill="#4285f4" clip-path="url(#id_0)" d="M376.09705 300.45C376.09705 302.93527 374.0823 304.95 371.59705 304.95C369.11176 304.95 367.09705 302.93527 367.09705 300.45C367.09705 297.96472 369.11176 295.95 371.59705 295.95C374.0823 295.95 376.09705 297.96472 376.09705 300.45Z" fill-rule="nonzero"/><path fill="#4285f4" clip-path="url(#id_0)" d="M376.59787 300.45C376.59787 302.93527 374.58313 304.95 372.09787 304.95C369.61258 304.95 367.59787 302.93527 367.59787 300.45C367.59787 297.96472 369.61258 295.95 372.09787 295.95C374.58313 295.95 376.59787 297.96472 376.59787 300.45Z" fill-rule="nonzero"/><path fill="#4285f4" clip-path="url(#id_0)" d="M377.09445 300.45C377.09445 302.93527 375.07974 304.95 372.59445 304.95C370.1092 304.95 368.09445 302.93527 368.09445 300.45C368.09445 297.96472 370.1092 295.95 372.59445 295.95C375.07974 295.95 377.09445 297.96472 377.09445 300.45Z" fill-rule="nonzero"/><path fill="#4285f4" clip-path="url(#id_0)" d="M378.07526 300.45C378.07526 302.93527 376.06055 304.95 373.57526 304.95C371.09 304.95 369.07526 302.93527 369.07526 300.45C369.07526 297.96472 371.09 295.95 373.57526 295.95C376.06055 295.95 378.07526 297.96472 378.07526 300.45Z" fill-rule="nonzero"/><path fill="#4285f4" clip-path="url(#id_0)" d="M378.5596 300.45C378.5596 302.93527 376.5449 304.95 374.0596 304.95C371.5743 304.95 369.5596 302.93527 369.5596 300.45C369.5596 297.96472 371.5743 295.95 374.0596 295.95C376.5449 295.95 378.5596 297.96472 378.5596 300.45Z" fill-rule="nonzero"/><path fill="#4285f4" clip-path="url(#id_0)" d="M379.51648 281.61414C379.51648 284.0994 377.50177 286.11414 375.01648 286.11414C372.5312 286.11414 370.51648 284.0994 370.51648 281.61414C370.51648 279.12885 372.5312 277.11414 375.01648 277.11414C377.50177 277.11414 379.51648 279.12885 379.51648 281.61414Z" fill-rule="nonzero"/><path fill="#4285f4" clip-path="url(#id_0)" d="M379.98917 300.45C379.98917 302.93527 377.97443 304.95 375.48917 304.95C373.00388 304.95 370.98917 302.93527 370.98917 300.45C370.98917 297.96472 373.00388 295.95 375.48917 295.95C377.97443 295.95 379.98917 297.96472 379.98917 300.45Z" fill-rule="nonzero"/><path fill="#4285f4" clip-path="url(#id_0)" d="M381.3848 300.45C381.3848 302.93527 379.3701 304.95 376.8848 304.95C374.3995 304.95 372.3848 302.93527 372.3848 300.45C372.3848 297.96472 374.3995 295.95 376.8848 295.95C379.3701 295.95 381.3848 297.96472 381.3848 300.45Z" fill-rule="nonzero"/><path fill="#4285f4" clip-path="url(#id_0)" d="M381.84274 300.45C381.84274 302.93527 379.82803 304.95 377.34274 304.95C374.85745 304.95 372.84274 302.93527 372.84274 300.45C372.84274 297.96472 374.85745 295.95 377.34274 295.95C379.82803 295.95 381.84274 297.96472 381.84274 300.45Z" fill-rule="nonzero"/><path fill="#4285f4" clip-path="url(#id_0)" d="M382.7481 300.45C382.7481 302.93527 380.73337 304.95 378.2481 304.95C375.76282 304.95 373.7481 302.93527 373.7481 300.45C373.7481 297.96472 375.76282 295.95 378.2481 295.95C380.73337 295.95 382.7481 297.96472 382.7481 300.45Z" fill-rule="nonzero"/><path fill="#4285f4" clip-path="url(#id_0)" d="M383.63974 300.45C383.63974 302.93527 381.62503 304.95 379.13974 304.95C376.65445 304.95 374.63974 302.93527 374.63974 300.45C374.63974 297.96472 376.65445 295.95 379.13974 295.95C381.62503 295.95 383.63974 297.96472 383.63974 300.45Z" fill-rule="nonzero"/><path fill="#4285f4" clip-path="url(#id_0)" d="M384.08054 300.45C384.08054 302.93527 382.06583 304.95 379.58054 304.95C377.09525 304.95 375.08054 302.93527 375.08054 300.45C375.08054 297.96472 377.09525 295.95 379.58054 295.95C382.06583 295.95 384.08054 297.96472 384.08054 300.45Z" fill-rule="nonzero"/><path fill="#4285f4" clip-path="url(#id_0)" d="M386.23633 300.45C386.23633 302.93527 384.22162 304.95 381.73633 304.95C379.25107 304.95 377.23633 302.93527 377.23633 300.45C377.23633 297.96472 379.25107 295.95 381.73633 295.95C384.22162 295.95 386.23633 297.96472 386.23633 300.45Z" fill-rule="nonzero"/><path fill="#4285f4" clip-path="url(#id_0)" d="M389.12766 300.45C389.12766 302.93527 387.1129 304.95 384.62766 304.95C382.14236 304.95 380.12766 302.93527 380.12766 300.45C380.12766 297.96472 382.14236 295.95 384.62766 295.95C387.1129 295.95 389.12766 297.96472 389.12766 300.45Z" fill-rule="nonzero"/><path fill="#4285f4" clip-path="url(#id_0)" d="M391.8835 300.45C391.8835 302.93527 389.8688 304.95 387.3835 304.95C384.89822 304.95 382.8835 302.93527 382.8835 300.45C382.8835 297.96472 384.89822 295.95 387.3835 295.95C389.8688 295.95 391.8835 297.96472 391.8835 300.45Z" fill-rule="nonzero"/><path fill="#4285f4" clip-path="url(#id_0)" d="M393.0262 300.45C393.0262 302.93527 391.0115 304.95 388.5262 304.95C386.04092 304.95 384.0262 302.93527 384.0262 300.45C384.0262 297.96472 386.04092 295.95 388.5262 295.95C391.0115 295.95 393.0262 297.96472 393.0262 300.45Z" fill-rule="nonzero"/><path fill="#4285f4" clip-path="url(#id_0)" d="M395.60925 300.45C395.60925 302.93527 393.5945 304.95 391.10925 304.95C388.62396 304.95 386.60925 302.93527 386.60925 300.45C386.60925 297.96472 388.62396 295.95 391.10925 295.95C393.5945 295.95 395.60925 297.96472 395.60925 300.45Z" fill-rule="nonzero"/><path fill="#4285f4" clip-path="url(#id_0)" d="M397.38724 281.61414C397.38724 284.0994 395.37253 286.11414 392.88724 286.11414C390.40195 286.11414 388.38724 284.0994 388.38724 281.61414C388.38724 279.12885 390.40195 277.11414 392.88724 277.11414C395.37253 277.11414 397.38724 279.12885 397.38724 281.61414Z" fill-rule="nonzero"/><path fill="#4285f4" clip-path="url(#id_0)" d="M398.4288 281.61414C398.4288 284.0994 396.41406 286.11414 393.9288 286.11414C391.4435 286.11414 389.4288 284.0994 389.4288 281.61414C389.4288 279.12885 391.4435 277.11414 393.9288 277.11414C396.41406 277.11414 398.4288 279.12885 398.4288 281.61414Z" fill-rule="nonzero"/><path fill="#4285f4" clip-path="url(#id_0)" d="M399.11307 300.45C399.11307 302.93527 397.09836 304.95 394.61307 304.95C392.12778 304.95 390.11307 302.93527 390.11307 300.45C390.11307 297.96472 392.12778 295.95 394.61307 295.95C397.09836 295.95 399.11307 297.96472 399.11307 300.45Z" fill-rule="nonzero"/><path fill="#4285f4" clip-path="url(#id_0)" d="M400.1248 300.45C400.1248 302.93527 398.11008 304.95 395.6248 304.95C393.1395 304.95 391.1248 302.93527 391.1248 300.45C391.1248 297.96472 393.1395 295.95 395.6248 295.95C398.11008 295.95 400.1248 297.96472 400.1248 300.45Z" fill-rule="nonzero"/><path fill="#4285f4" clip-path="url(#id_0)" d="M403.0596 300.45C403.0596 302.93527 401.04486 304.95 398.5596 304.95C396.0743 304.95 394.0596 302.93527 394.0596 300.45C394.0596 297.96472 396.0743 295.95 398.5596 295.95C401.04486 295.95 403.0596 297.96472 403.0596 300.45Z" fill-rule="nonzero"/><path fill="#4285f4" clip-path="url(#id_0)" d="M405.24512 300.45C405.24512 302.93527 403.2304 304.95 400.74512 304.95C398.25986 304.95 396.24512 302.93527 396.24512 300.45C396.24512 297.96472 398.25986 295.95 400.74512 295.95C403.2304 295.95 405.24512 297.96472 405.24512 300.45Z" fill-rule="nonzero"/><path fill="#4285f4" clip-path="url(#id_0)" d="M407.9409 300.45C407.9409 302.93527 405.92615 304.95 403.4409 304.95C400.9556 304.95 398.9409 302.93527 398.9409 300.45C398.9409 297.96472 400.9556 295.95 403.4409 295.95C405.92615 295.95 407.9409 297.96472 407.9409 300.45Z" fill-rule="nonzero"/><path fill="#4285f4" clip-path="url(#id_0)" d="M411.35324 300.45C411.35324 302.93527 409.33853 304.95 406.85324 304.95C404.36795 304.95 402.35324 302.93527 402.35324 300.45C402.35324 297.96472 404.36795 295.95 406.85324 295.95C409.33853 295.95 411.35324 297.96472 411.35324 300.45Z" fill-rule="nonzero"/><path fill="#4285f4" clip-path="url(#id_0)" d="M417.3874 300.45C417.3874 302.93527 415.37265 304.95 412.8874 304.95C410.4021 304.95 408.3874 302.93527 408.3874 300.45C408.3874 297.96472 410.4021 295.95 412.8874 295.95C415.37265 295.95 417.3874 297.96472 417.3874 300.45Z" fill-rule="nonzero"/><path fill="#4285f4" clip-path="url(#id_0)" d="M425.74188 281.61414C425.74188 284.0994 423.72717 286.11414 421.24188 286.11414C418.7566 286.11414 416.74188 284.0994 416.74188 281.61414C416.74188 279.12885 418.7566 277.11414 421.24188 277.11414C423.72717 277.11414 425.74188 279.12885 425.74188 281.61414Z" fill-rule="nonzero"/><path fill="#4285f4" clip-path="url(#id_0)" d="M448.58383 300.45C448.58383 302.93527 446.5691 304.95 444.08383 304.95C441.59854 304.95 439.58383 302.93527 439.58383 300.45C439.58383 297.96472 441.59854 295.95 444.08383 295.95C446.5691 295.95 448.58383 297.96472 448.58383 300.45Z" fill-rule="nonzero"/><path fill="#4285f4" clip-path="url(#id_0)" d="M579.14185 300.45C579.14185 302.93527 577.1271 304.95 574.64185 304.95C572.15656 304.95 570.14185 302.93527 570.14185 300.45C570.14185 297.96472 572.15656 295.95 574.64185 295.95C577.1271 295.95 579.14185 297.96472 579.14185 300.45Z" fill-rule="nonzero"/><path fill="#000000" d="M313.42188 349.45L313.42188 340.85626L316.39062 340.85626Q317.39062 340.85626 317.92188 340.98126Q318.65625 341.15314 319.17188 341.59064Q319.85938 342.16876 320.1875 343.075Q320.53125 343.96564 320.53125 345.10626Q320.53125 346.09064 320.29688 346.84064Q320.07812 347.59064 319.71875 348.09064Q319.35938 348.59064 318.92188 348.8719Q318.5 349.15314 317.90625 349.3094Q317.3125 349.45 316.53125 349.45L313.42188 349.45ZM314.5625 348.4344L316.39062 348.4344Q317.25 348.4344 317.73438 348.27814Q318.21875 348.1219 318.5 347.825Q318.90625 347.4344 319.125 346.7469Q319.35938 346.0594 319.35938 345.09064Q319.35938 343.7469 318.90625 343.02814Q318.46875 342.29376 317.84375 342.04376Q317.375 341.8719 316.375 341.8719L314.5625 341.8719L314.5625 348.4344ZM326.54688 347.45L327.64062 347.575Q327.39062 348.52814 326.6875 349.0594Q325.98438 349.59064 324.90625 349.59064Q323.54688 349.59064 322.73438 348.7469Q321.9375 347.90314 321.9375 346.3875Q321.9375 344.825 322.75 343.96564Q323.5625 343.09064 324.84375 343.09064Q326.09375 343.09064 326.875 343.9344Q327.67188 344.77814 327.67188 346.325Q327.67188 346.41876 327.67188 346.60626L323.03125 346.60626Q323.09375 347.6375 323.60938 348.1844Q324.125 348.71564 324.90625 348.71564Q325.48438 348.71564 325.89062 348.41876Q326.3125 348.10626 326.54688 347.45ZM323.09375 345.7469L326.5625 345.7469Q326.5 344.95 326.17188 344.5594Q325.65625 343.95 324.85938 343.95Q324.125 343.95 323.625 344.4344Q323.14062 344.91876 323.09375 345.7469ZM329.09375 349.96564L330.125 350.1219Q330.1875 350.59064 330.48438 350.8094Q330.875 351.10626 331.54688 351.10626Q332.28125 351.10626 332.67188 350.8094Q333.07812 350.5125 333.21875 349.9969Q333.3125 349.66876 333.29688 348.6375Q332.60938 349.45 331.57812 349.45Q330.29688 349.45 329.59375 348.52814Q328.89062 347.59064 328.89062 346.3094Q328.89062 345.41876 329.20312 344.66876Q329.53125 343.90314 330.14062 343.4969Q330.75 343.09064 331.57812 343.09064Q332.6875 343.09064 333.40625 343.98126L333.40625 343.23126L334.375 343.23126L334.375 348.60626Q334.375 350.0594 334.07812 350.66876Q333.78125 351.27814 333.14062 351.6219Q332.5 351.98126 331.5625 351.98126Q330.45312 351.98126 329.76562 351.48126Q329.07812 350.98126 329.09375 349.96564ZM329.96875 346.23126Q329.96875 347.45 330.45312 348.0125Q330.9375 348.575 331.67188 348.575Q332.40625 348.575 332.89062 348.0125Q333.39062 347.45 333.39062 346.2625Q333.39062 345.1219 332.875 344.54376Q332.375 343.96564 331.65625 343.96564Q330.95312 343.96564 330.45312 344.54376Q329.96875 345.10626 329.96875 346.23126ZM336.28125 349.45L336.28125 343.23126L337.23438 343.23126L337.23438 344.16876Q337.59375 343.5125 337.89062 343.3094Q338.20312 343.09064 338.57812 343.09064Q339.10938 343.09064 339.65625 343.41876L339.29688 344.40314Q338.90625 344.16876 338.53125 344.16876Q338.17188 344.16876 337.89062 344.3875Q337.625 344.59064 337.51562 344.96564Q337.32812 345.52814 337.32812 346.1844L337.32812 349.45L336.28125 349.45ZM344.54688 347.45L345.64062 347.575Q345.39062 348.52814 344.6875 349.0594Q343.98438 349.59064 342.90625 349.59064Q341.54688 349.59064 340.73438 348.7469Q339.9375 347.90314 339.9375 346.3875Q339.9375 344.825 340.75 343.96564Q341.5625 343.09064 342.84375 343.09064Q344.09375 343.09064 344.875 343.9344Q345.67188 344.77814 345.67188 346.325Q345.67188 346.41876 345.67188 346.60626L341.03125 346.60626Q341.09375 347.6375 341.60938 348.1844Q342.125 348.71564 342.90625 348.71564Q343.48438 348.71564 343.89062 348.41876Q344.3125 348.10626 344.54688 347.45ZM341.09375 345.7469L344.5625 345.7469Q344.5 344.95 344.17188 344.5594Q343.65625 343.95 342.85938 343.95Q342.125 343.95 341.625 344.4344Q341.14062 344.91876 341.09375 345.7469ZM351.54688 347.45L352.64062 347.575Q352.39062 348.52814 351.6875 349.0594Q350.98438 349.59064 349.90625 349.59064Q348.54688 349.59064 347.73438 348.7469Q346.9375 347.90314 346.9375 346.3875Q346.9375 344.825 347.75 343.96564Q348.5625 343.09064 349.84375 343.09064Q351.09375 343.09064 351.875 343.9344Q352.67188 344.77814 352.67188 346.325Q352.67188 346.41876 352.67188 346.60626L348.03125 346.60626Q348.09375 347.6375 348.60938 348.1844Q349.125 348.71564 349.90625 348.71564Q350.48438 348.71564 350.89062 348.41876Q351.3125 348.10626 351.54688 347.45ZM348.09375 345.7469L351.5625 345.7469Q351.5 344.95 351.17188 344.5594Q350.65625 343.95 349.85938 343.95Q349.125 343.95 348.625 344.4344Q348.14062 344.91876 348.09375 345.7469Z" fill-rule="nonzero"/><path fill="#000000" d="M29.550013 215.19896L20.956263 215.19896L20.956263 209.40208L21.971888 209.40208L21.971888 214.05833L24.628138 214.05833L24.628138 210.02708L25.643763 210.02708L25.643763 214.05833L29.550013 214.05833L29.550013 215.19896ZM29.550013 208.40208L23.331263 208.40208L23.331263 207.44896L24.268763 207.44896Q23.612513 207.08958 23.409388 206.79271Q23.190638 206.48021 23.190638 206.10521Q23.190638 205.57396 23.518763 205.02708L24.503138 205.38646Q24.268763 205.77708 24.268763 206.15208Q24.268763 206.51146 24.487513 206.79271Q24.690638 207.05833 25.065638 207.16771Q25.628138 207.35521 26.284388 207.35521L29.550013 207.35521L29.550013 208.40208ZM27.550013 200.13646L27.675013 199.04271Q28.628138 199.29271 29.159388 199.99583Q29.690638 200.69896 29.690638 201.77708Q29.690638 203.13646 28.846888 203.94896Q28.003138 204.74583 26.487513 204.74583Q24.925013 204.74583 24.065638 203.93333Q23.190638 203.12083 23.190638 201.83958Q23.190638 200.58958 24.034388 199.80833Q24.878138 199.01146 26.425013 199.01146Q26.518763 199.01146 26.706263 199.01146L26.706263 203.65208Q27.737513 203.58958 28.284388 203.07396Q28.815638 202.55833 28.815638 201.77708Q28.815638 201.19896 28.518763 200.79271Q28.206263 200.37083 27.550013 200.13646ZM25.846888 203.58958L25.846888 200.12083Q25.050013 200.18333 24.659388 200.51146Q24.050013 201.02708 24.050013 201.82396Q24.050013 202.55833 24.534388 203.05833Q25.018763 203.54271 25.846888 203.58958ZM31.940638 193.41771L28.893763 193.41771Q29.237513 193.66771 29.471888 194.12083Q29.690638 194.55833 29.690638 195.05833Q29.690638 196.16771 28.815638 196.96458Q27.925013 197.76146 26.378138 197.76146Q25.440638 197.76146 24.706263 197.43333Q23.956263 197.10521 23.581263 196.49583Q23.190638 195.87083 23.190638 195.13646Q23.190638 193.98021 24.159388 193.32396L23.331263 193.32396L23.331263 192.37083L31.940638 192.37083L31.940638 193.41771ZM26.425013 196.68333Q27.628138 196.68333 28.221888 196.18333Q28.815638 195.66771 28.815638 194.96458Q28.815638 194.29271 28.253138 193.80833Q27.675013 193.32396 26.518763 193.32396Q25.268763 193.32396 24.643763 193.83958Q24.018763 194.33958 24.018763 195.04271Q24.018763 195.71458 24.612513 196.19896Q25.190638 196.68333 26.425013 196.68333ZM29.550013 186.30833L28.628138 186.30833Q29.690638 187.04271 29.690638 188.29271Q29.690638 188.83958 29.487513 189.32396Q29.268763 189.79271 28.956263 190.02708Q28.628138 190.26146 28.159388 190.35521Q27.862513 190.41771 27.175013 190.41771L23.331263 190.41771L23.331263 189.35521L26.784388 189.35521Q27.596888 189.35521 27.893763 189.29271Q28.300013 189.19896 28.550013 188.88646Q28.784388 188.55833 28.784388 188.07396Q28.784388 187.60521 28.550013 187.19896Q28.300013 186.77708 27.878138 186.60521Q27.456263 186.41771 26.659388 186.41771L23.331263 186.41771L23.331263 185.37083L29.550013 185.37083L29.550013 186.30833ZM27.550013 179.13646L27.675013 178.04271Q28.628138 178.29271 29.159388 178.99583Q29.690638 179.69896 29.690638 180.77708Q29.690638 182.13646 28.846888 182.94896Q28.003138 183.74583 26.487513 183.74583Q24.925013 183.74583 24.065638 182.93333Q23.190638 182.12083 23.190638 180.83958Q23.190638 179.58958 24.034388 178.80833Q24.878138 178.01146 26.425013 178.01146Q26.518763 178.01146 26.706263 178.01146L26.706263 182.65208Q27.737513 182.58958 28.284388 182.07396Q28.815638 181.55833 28.815638 180.77708Q28.815638 180.19896 28.518763 179.79271Q28.206263 179.37083 27.550013 179.13646ZM25.846888 182.58958L25.846888 179.12083Q25.050013 179.18333 24.659388 179.51146Q24.050013 180.02708 24.050013 180.82396Q24.050013 181.55833 24.534388 182.05833Q25.018763 182.54271 25.846888 182.58958ZM29.550013 176.38646L23.331263 176.38646L23.331263 175.44896L24.206263 175.44896Q23.190638 174.76146 23.190638 173.46458Q23.190638 172.90208 23.393763 172.43333Q23.596888 171.94896 23.925013 171.71458Q24.253138 171.48021 24.690638 171.38646Q24.987513 171.33958 25.721888 171.33958L29.550013 171.33958L29.550013 172.38646L25.768763 172.38646Q25.112513 172.38646 24.800013 172.51146Q24.487513 172.63646 24.300013 172.94896Q24.096888 173.26146 24.096888 173.68333Q24.096888 174.35521 24.534388 174.85521Q24.956263 175.33958 26.143763 175.33958L29.550013 175.33958L29.550013 176.38646ZM27.268763 165.32396L27.409388 164.29271Q28.471888 164.46458 29.081263 165.16771Q29.690638 165.87083 29.690638 166.88646Q29.690638 168.16771 28.862513 168.94896Q28.018763 169.71458 26.456263 169.71458Q25.456263 169.71458 24.706263 169.38646Q23.940638 169.04271 23.565638 168.37083Q23.190638 167.68333 23.190638 166.87083Q23.190638 165.87083 23.706263 165.23021Q24.206263 164.57396 25.159388 164.38646L25.315638 165.41771Q24.690638 165.55833 24.378138 165.93333Q24.050013 166.30833 24.050013 166.83958Q24.050013 167.63646 24.628138 168.13646Q25.190638 168.63646 26.425013 168.63646Q27.690638 168.63646 28.253138 168.15208Q28.815638 167.66771 28.815638 166.90208Q28.815638 166.27708 28.440638 165.87083Q28.065638 165.44896 27.268763 165.32396ZM31.940638 163.43333L30.956263 163.55833Q31.050013 163.21458 31.050013 162.94896Q31.050013 162.60521 30.925013 162.40208Q30.815638 162.18333 30.612513 162.04271Q30.440638 161.94896 29.815638 161.71458Q29.737513 161.69896 29.565638 161.62083L23.331263 163.99583L23.331263 162.85521L26.925013 161.55833Q27.612513 161.30833 28.378138 161.10521Q27.643763 160.91771 26.956263 160.66771L23.331263 159.33958L23.331263 158.29271L29.659388 160.65208Q30.675013 161.04271 31.065638 161.24583Q31.596888 161.52708 31.831263 161.90208Q32.08126 162.26146 32.08126 162.76146Q32.08126 163.05833 31.940638 163.43333Z" fill-rule="nonzero"/><path fill="#000000" d="M76.01875 304.45L74.97188 304.45L74.97188 297.73126Q74.58125 298.09064 73.95625 298.46564Q73.34688 298.825 72.8625 298.9969L72.8625 297.98126Q73.7375 297.5594 74.39375 296.98126Q75.06563 296.3875 75.34688 295.825L76.01875 295.825L76.01875 304.45Z" fill-rule="nonzero"/><path fill="#000000" d="M69.01875 241.87859L67.97188 241.87859L67.97188 235.15984Q67.58125 235.51921 66.95625 235.89421Q66.34688 236.25359 65.8625 236.42546L65.8625 235.40984Q66.7375 234.98796 67.39375 234.40984Q68.06563 233.81609 68.34688 233.25359L69.01875 233.25359L69.01875 241.87859ZM72.05 237.64421Q72.05 236.11296 72.3625 235.19109Q72.675 234.25359 73.28438 233.75359Q73.90938 233.25359 74.84688 233.25359Q75.53438 233.25359 76.05 233.53484Q76.58125 233.81609 76.925 234.34734Q77.26875 234.86296 77.45625 235.61296Q77.64375 236.36296 77.64375 237.64421Q77.64375 239.15984 77.33125 240.08171Q77.03438 241.00359 76.40938 241.51921Q75.8 242.01921 74.84688 242.01921Q73.6125 242.01921 72.89375 241.12859Q72.05 240.06609 72.05 237.64421ZM73.12813 237.64421Q73.12813 239.75359 73.62813 240.45671Q74.12813 241.15984 74.84688 241.15984Q75.58125 241.15984 76.06563 240.45671Q76.56563 239.75359 76.56563 237.64421Q76.56563 235.51921 76.06563 234.83171Q75.58125 234.12859 74.83125 234.12859Q74.1125 234.12859 73.675 234.73796Q73.12813 235.51921 73.12813 237.64421Z" fill-rule="nonzero"/><path fill="#000000" d="M62.01875 179.30719L60.971874 179.30719L60.971874 172.58844Q60.58125 172.94781 59.95625 173.32281Q59.346874 173.68219 58.8625 173.85406L58.8625 172.83844Q59.7375 172.41656 60.39375 171.83844Q61.065624 171.24469 61.346874 170.68219L62.01875 170.68219L62.01875 179.30719ZM65.05 175.07281Q65.05 173.54156 65.3625 172.61969Q65.675 171.68219 66.28438 171.18219Q66.90938 170.68219 67.84688 170.68219Q68.53438 170.68219 69.05 170.96344Q69.58125 171.24469 69.925 171.77594Q70.26875 172.29156 70.45625 173.04156Q70.64375 173.79156 70.64375 175.07281Q70.64375 176.58844 70.33125 177.51031Q70.03438 178.43219 69.40938 178.94781Q68.8 179.44781 67.84688 179.44781Q66.6125 179.44781 65.89375 178.55719Q65.05 177.49469 65.05 175.07281ZM66.12813 175.07281Q66.12813 177.18219 66.62813 177.88531Q67.12813 178.58844 67.84688 178.58844Q68.58125 178.58844 69.06563 177.88531Q69.56563 177.18219 69.56563 175.07281Q69.56563 172.94781 69.06563 172.26031Q68.58125 171.55719 67.83125 171.55719Q67.1125 171.55719 66.675 172.16656Q66.12813 172.94781 66.12813 175.07281ZM72.05 175.07281Q72.05 173.54156 72.3625 172.61969Q72.675 171.68219 73.28438 171.18219Q73.90938 170.68219 74.84688 170.68219Q75.53438 170.68219 76.05 170.96344Q76.58125 171.24469 76.925 171.77594Q77.26875 172.29156 77.45625 173.04156Q77.64375 173.79156 77.64375 175.07281Q77.64375 176.58844 77.33125 177.51031Q77.03438 178.43219 76.40938 178.94781Q75.8 179.44781 74.84688 179.44781Q73.6125 179.44781 72.89375 178.55719Q72.05 177.49469 72.05 175.07281ZM73.12813 175.07281Q73.12813 177.18219 73.62813 177.88531Q74.12813 178.58844 74.84688 178.58844Q75.58125 178.58844 76.06563 177.88531Q76.56563 177.18219 76.56563 175.07281Q76.56563 172.94781 76.06563 172.26031Q75.58125 171.55719 74.83125 171.55719Q74.1125 171.55719 73.675 172.16656Q73.12813 172.94781 73.12813 175.07281Z" fill-rule="nonzero"/><path fill="#000000" d="M55.01875 116.73577L53.971874 116.73577L53.971874 110.01702Q53.58125 110.376396 52.95625 110.751396Q52.346874 111.11077 51.8625 111.282646L51.8625 110.26702Q52.7375 109.845146 53.39375 109.26702Q54.065624 108.67327 54.346874 108.11077L55.01875 108.11077L55.01875 116.73577ZM58.05 112.501396Q58.05 110.970146 58.3625 110.04827Q58.675 109.11077 59.284374 108.61077Q59.909374 108.11077 60.846874 108.11077Q61.534374 108.11077 62.05 108.39202Q62.58125 108.67327 62.925 109.20452Q63.26875 109.720146 63.45625 110.470146Q63.64375 111.220146 63.64375 112.501396Q63.64375 114.01702 63.33125 114.938896Q63.034374 115.86077 62.409374 116.376396Q61.8 116.876396 60.846874 116.876396Q59.6125 116.876396 58.89375 115.98577Q58.05 114.92327 58.05 112.501396ZM59.128124 112.501396Q59.128124 114.61077 59.628124 115.313896Q60.128124 116.01702 60.846874 116.01702Q61.58125 116.01702 62.065624 115.313896Q62.565624 114.61077 62.565624 112.501396Q62.565624 110.376396 62.065624 109.688896Q61.58125 108.98577 60.83125 108.98577Q60.1125 108.98577 59.675 109.595146Q59.128124 110.376396 59.128124 112.501396ZM65.05 112.501396Q65.05 110.970146 65.3625 110.04827Q65.675 109.11077 66.28438 108.61077Q66.90938 108.11077 67.84688 108.11077Q68.53438 108.11077 69.05 108.39202Q69.58125 108.67327 69.925 109.20452Q70.26875 109.720146 70.45625 110.470146Q70.64375 111.220146 70.64375 112.501396Q70.64375 114.01702 70.33125 114.938896Q70.03438 115.86077 69.40938 116.376396Q68.8 116.876396 67.84688 116.876396Q66.6125 116.876396 65.89375 115.98577Q65.05 114.92327 65.05 112.501396ZM66.12813 112.501396Q66.12813 114.61077 66.62813 115.313896Q67.12813 116.01702 67.84688 116.01702Q68.58125 116.01702 69.06563 115.313896Q69.56563 114.61077 69.56563 112.501396Q69.56563 110.376396 69.06563 109.688896Q68.58125 108.98577 67.83125 108.98577Q67.1125 108.98577 66.675 109.595146Q66.12813 110.376396 66.12813 112.501396ZM72.05 112.501396Q72.05 110.970146 72.3625 110.04827Q72.675 109.11077 73.28438 108.61077Q73.90938 108.11077 74.84688 108.11077Q75.53438 108.11077 76.05 108.39202Q76.58125 108.67327 76.925 109.20452Q77.26875 109.720146 77.45625 110.470146Q77.64375 111.220146 77.64375 112.501396Q77.64375 114.01702 77.33125 114.938896Q77.03438 115.86077 76.40938 116.376396Q75.8 116.876396 74.84688 116.876396Q73.6125 116.876396 72.89375 115.98577Q72.05 114.92327 72.05 112.501396ZM73.12813 112.501396Q73.12813 114.61077 73.62813 115.313896Q74.12813 116.01702 74.84688 116.01702Q75.58125 116.01702 76.06563 115.313896Q76.56563 114.61077 76.56563 112.501396Q76.56563 110.376396 76.06563 109.688896Q75.58125 108.98577 74.83125 108.98577Q74.1125 108.98577 73.675 109.595146Q73.12813 110.376396 73.12813 112.501396Z" fill-rule="nonzero"/><path fill="#000000" d="M92.326935 317.45L91.28006 317.45L91.28006 310.73126Q90.889435 311.09064 90.264435 311.46564Q89.65506 311.825 89.170685 311.9969L89.170685 310.98126Q90.045685 310.5594 90.701935 309.98126Q91.37381 309.3875 91.65506 308.825L92.326935 308.825L92.326935 317.45Z" fill-rule="nonzero"/><path fill="#000000" d="M224.32677 317.45L223.27989 317.45L223.27989 310.73126Q222.88927 311.09064 222.26427 311.46564Q221.65489 311.825 221.17052 311.9969L221.17052 310.98126Q222.04552 310.5594 222.70177 309.98126Q223.37364 309.3875 223.65489 308.825L224.32677 308.825L224.32677 317.45ZM227.35802 313.21564Q227.35802 311.6844 227.67052 310.7625Q227.98302 309.825 228.59239 309.325Q229.21739 308.825 230.15489 308.825Q230.84239 308.825 231.35802 309.10626Q231.88927 309.3875 232.23302 309.91876Q232.57677 310.4344 232.76427 311.1844Q232.95177 311.9344 232.95177 313.21564Q232.95177 314.73126 232.63927 315.65314Q232.34239 316.575 231.71739 317.09064Q231.10802 317.59064 230.15489 317.59064Q228.92052 317.59064 228.20177 316.7Q227.35802 315.6375 227.35802 313.21564ZM228.43614 313.21564Q228.43614 315.325 228.93614 316.02814Q229.43614 316.73126 230.15489 316.73126Q230.88927 316.73126 231.37364 316.02814Q231.87364 315.325 231.87364 313.21564Q231.87364 311.09064 231.37364 310.40314Q230.88927 309.7 230.13927 309.7Q229.42052 309.7 228.98302 310.3094Q228.43614 311.09064 228.43614 313.21564Z" fill-rule="nonzero"/><path fill="#000000" d="M356.3266 317.45L355.27972 317.45L355.27972 310.73126Q354.8891 311.09064 354.2641 311.46564Q353.65472 311.825 353.17035 311.9969L353.17035 310.98126Q354.04535 310.5594 354.7016 309.98126Q355.37347 309.3875 355.65472 308.825L356.3266 308.825L356.3266 317.45ZM359.35785 313.21564Q359.35785 311.6844 359.67035 310.7625Q359.98285 309.825 360.59222 309.325Q361.21722 308.825 362.15472 308.825Q362.84222 308.825 363.35785 309.10626Q363.8891 309.3875 364.23285 309.91876Q364.5766 310.4344 364.7641 311.1844Q364.9516 311.9344 364.9516 313.21564Q364.9516 314.73126 364.6391 315.65314Q364.34222 316.575 363.71722 317.09064Q363.10785 317.59064 362.15472 317.59064Q360.92035 317.59064 360.2016 316.7Q359.35785 315.6375 359.35785 313.21564ZM360.43597 313.21564Q360.43597 315.325 360.93597 316.02814Q361.43597 316.73126 362.15472 316.73126Q362.8891 316.73126 363.37347 316.02814Q363.87347 315.325 363.87347 313.21564Q363.87347 311.09064 363.37347 310.40314Q362.8891 309.7 362.1391 309.7Q361.42035 309.7 360.98285 310.3094Q360.43597 311.09064 360.43597 313.21564ZM366.35785 313.21564Q366.35785 311.6844 366.67035 310.7625Q366.98285 309.825 367.59222 309.325Q368.21722 308.825 369.15472 308.825Q369.84222 308.825 370.35785 309.10626Q370.8891 309.3875 371.23285 309.91876Q371.5766 310.4344 371.7641 311.1844Q371.9516 311.9344 371.9516 313.21564Q371.9516 314.73126 371.6391 315.65314Q371.34222 316.575 370.71722 317.09064Q370.10785 317.59064 369.15472 317.59064Q367.92035 317.59064 367.2016 316.7Q366.35785 315.6375 366.35785 313.21564ZM367.43597 313.21564Q367.43597 315.325 367.93597 316.02814Q368.43597 316.73126 369.15472 316.73126Q369.8891 316.73126 370.37347 316.02814Q370.87347 315.325 370.87347 313.21564Q370.87347 311.09064 370.37347 310.40314Q369.8891 309.7 369.1391 309.7Q368.42035 309.7 367.98285 310.3094Q367.43597 311.09064 367.43597 313.21564Z" fill-rule="nonzero"/><path fill="#000000" d="M488.32645 317.45L487.27957 317.45L487.27957 310.73126Q486.88895 311.09064 486.26395 311.46564Q485.65457 311.825 485.1702 311.9969L485.1702 310.98126Q486.0452 310.5594 486.70145 309.98126Q487.37332 309.3875 487.65457 308.825L488.32645 308.825L488.32645 317.45ZM491.3577 313.21564Q491.3577 311.6844 491.6702 310.7625Q491.9827 309.825 492.59207 309.325Q493.21707 308.825 494.15457 308.825Q494.84207 308.825 495.3577 309.10626Q495.88895 309.3875 496.2327 309.91876Q496.57645 310.4344 496.76395 311.1844Q496.95145 311.9344 496.95145 313.21564Q496.95145 314.73126 496.63895 315.65314Q496.34207 316.575 495.71707 317.09064Q495.1077 317.59064 494.15457 317.59064Q492.9202 317.59064 492.20145 316.7Q491.3577 315.6375 491.3577 313.21564ZM492.43582 313.21564Q492.43582 315.325 492.93582 316.02814Q493.43582 316.73126 494.15457 316.73126Q494.88895 316.73126 495.37332 316.02814Q495.87332 315.325 495.87332 313.21564Q495.87332 311.09064 495.37332 310.40314Q494.88895 309.7 494.13895 309.7Q493.4202 309.7 492.9827 310.3094Q492.43582 311.09064 492.43582 313.21564ZM498.3577 313.21564Q498.3577 311.6844 498.6702 310.7625Q498.9827 309.825 499.59207 309.325Q500.21707 308.825 501.15457 308.825Q501.84207 308.825 502.3577 309.10626Q502.88895 309.3875 503.2327 309.91876Q503.57645 310.4344 503.76395 311.1844Q503.95145 311.9344 503.95145 313.21564Q503.95145 314.73126 503.63895 315.65314Q503.34207 316.575 502.71707 317.09064Q502.1077 317.59064 501.15457 317.59064Q499.9202 317.59064 499.20145 316.7Q498.3577 315.6375 498.3577 313.21564ZM499.43582 313.21564Q499.43582 315.325 499.93582 316.02814Q500.43582 316.73126 501.15457 316.73126Q501.88895 316.73126 502.37332 316.02814Q502.87332 315.325 502.87332 313.21564Q502.87332 311.09064 502.37332 310.40314Q501.88895 309.7 501.13895 309.7Q500.4202 309.7 499.9827 310.3094Q499.43582 311.09064 499.43582 313.21564ZM505.3577 313.21564Q505.3577 311.6844 505.6702 310.7625Q505.9827 309.825 506.59207 309.325Q507.21707 308.825 508.15457 308.825Q508.84207 308.825 509.3577 309.10626Q509.88895 309.3875 510.2327 309.91876Q510.57645 310.4344 510.76395 311.1844Q510.95145 311.9344 510.95145 313.21564Q510.95145 314.73126 510.63895 315.65314Q510.34207 316.575 509.71707 317.09064Q509.1077 317.59064 508.15457 317.59064Q506.9202 317.59064 506.20145 316.7Q505.3577 315.6375 505.3577 313.21564ZM506.43582 313.21564Q506.43582 315.325 506.93582 316.02814Q507.43582 316.73126 508.15457 316.73126Q508.88895 316.73126 509.37332 316.02814Q509.87332 315.325 509.87332 313.21564Q509.87332 311.09064 509.37332 310.40314Q508.88895 309.7 508.13895 309.7Q507.4202 309.7 506.9827 310.3094Q506.43582 311.09064 506.43582 313.21564Z" fill-rule="nonzero"/><path fill="#757575" d="M22.08125 29.784374Q20.9875 29.378124 20.45625 28.64375Q19.940624 27.89375 19.940624 26.8625Q19.940624 25.3 21.065624 24.2375Q22.190624 23.175 24.05 23.175Q25.925 23.175 27.065624 24.26875Q28.20625 25.346874 28.20625 26.909374Q28.20625 27.909374 27.675 28.64375Q27.159374 29.378124 26.096874 29.784374Q27.425 30.221874 28.1125 31.175Q28.8 32.128124 28.8 33.45625Q28.8 35.3 27.4875 36.55Q26.190624 37.8 24.08125 37.8Q21.95625 37.8 20.659374 36.55Q19.3625 35.284374 19.3625 33.409374Q19.3625 32.01875 20.065624 31.08125Q20.784374 30.128124 22.08125 29.784374ZM21.7375 26.8Q21.7375 27.815624 22.39375 28.471874Q23.05 29.1125 24.08125 29.1125Q25.096874 29.1125 25.753124 28.471874Q26.409374 27.83125 26.409374 26.909374Q26.409374 25.940624 25.7375 25.284374Q25.065624 24.6125 24.065624 24.6125Q23.065624 24.6125 22.39375 25.26875Q21.7375 25.909374 21.7375 26.8ZM21.175 33.425Q21.175 34.175 21.51875 34.878124Q21.878124 35.58125 22.58125 35.971874Q23.284374 36.346874 24.096874 36.346874Q25.3625 36.346874 26.175 35.534374Q27.003124 34.721874 27.003124 33.471874Q27.003124 32.20625 26.159374 31.378124Q25.315624 30.55 24.034374 30.55Q22.8 30.55 21.9875 31.378124Q21.175 32.190624 21.175 33.425ZM33.08125 29.784374Q31.9875 29.378124 31.45625 28.64375Q30.940624 27.89375 30.940624 26.8625Q30.940624 25.3 32.065624 24.2375Q33.190624 23.175 35.05 23.175Q36.925 23.175 38.065624 24.26875Q39.20625 25.346874 39.20625 26.909374Q39.20625 27.909374 38.675 28.64375Q38.159374 29.378124 37.096874 29.784374Q38.425 30.221874 39.1125 31.175Q39.8 32.128124 39.8 33.45625Q39.8 35.3 38.4875 36.55Q37.190624 37.8 35.08125 37.8Q32.95625 37.8 31.659374 36.55Q30.3625 35.284374 30.3625 33.409374Q30.3625 32.01875 31.065624 31.08125Q31.784374 30.128124 33.08125 29.784374ZM32.7375 26.8Q32.7375 27.815624 33.39375 28.471874Q34.05 29.1125 35.08125 29.1125Q36.096874 29.1125 36.753124 28.471874Q37.409374 27.83125 37.409374 26.909374Q37.409374 25.940624 36.7375 25.284374Q36.065624 24.6125 35.065624 24.6125Q34.065624 24.6125 33.39375 25.26875Q32.7375 25.909374 32.7375 26.8ZM32.175 33.425Q32.175 34.175 32.51875 34.878124Q32.878124 35.58125 33.58125 35.971874Q34.284374 36.346874 35.096874 36.346874Q36.3625 36.346874 37.175 35.534374Q38.003124 34.721874 38.003124 33.471874Q38.003124 32.20625 37.159374 31.378124Q36.315624 30.55 35.034374 30.55Q33.8 30.55 32.9875 31.378124Q32.175 32.190624 32.175 33.425ZM40.690624 37.55L44.4875 32.159374L40.9875 27.175L43.175 27.175L44.76875 29.6125Q45.221874 30.3 45.4875 30.76875Q45.925 30.128124 46.284374 29.628124L48.034374 27.175L50.128124 27.175L46.55 32.065624L50.409374 37.55L48.253124 37.55L46.1125 34.33125L45.55 33.45625L42.83125 37.55L40.690624 37.55ZM50.39375 33.76875L52.14375 33.534374Q52.45625 35.034374 53.175 35.690624Q53.909374 36.346874 54.95625 36.346874Q56.190624 36.346874 57.034374 35.4875Q57.89375 34.628124 57.89375 33.3625Q57.89375 32.14375 57.096874 31.3625Q56.315624 30.58125 55.096874 30.58125Q54.596874 30.58125 53.8625 30.76875L54.05 29.221874Q54.221874 29.253124 54.33125 29.253124Q55.45625 29.253124 56.346874 28.675Q57.253124 28.08125 57.253124 26.8625Q57.253124 25.89375 56.596874 25.253124Q55.940624 24.6125 54.909374 24.6125Q53.89375 24.6125 53.20625 25.26875Q52.51875 25.909374 52.33125 27.190624L50.565624 26.878124Q50.89375 25.1125 52.034374 24.14375Q53.175 23.175 54.878124 23.175Q56.05 23.175 57.034374 23.675Q58.01875 24.175 58.534374 25.05Q59.065624 25.925 59.065624 26.89375Q59.065624 27.815624 58.565624 28.58125Q58.065624 29.346874 57.096874 29.8Q58.3625 30.08125 59.065624 31.01875Q59.76875 31.940624 59.76875 33.315624Q59.76875 35.190624 58.39375 36.503124Q57.034374 37.8 54.940624 37.8Q53.05 37.8 51.8 36.675Q50.565624 35.55 50.39375 33.76875ZM68.00313 37.55L66.2375 37.55L66.2375 26.346874Q65.6125 26.95625 64.58125 27.565624Q63.55 28.159374 62.721874 28.471874L62.721874 26.76875Q64.20625 26.08125 65.3 25.096874Q66.40938 24.096874 66.8625 23.175L68.00313 23.175L68.00313 37.55ZM79.09688 37.55L79.09688 23.2375L84.01875 23.2375Q85.69063 23.2375 86.58125 23.440624Q87.8 23.721874 88.675 24.45625Q89.8 25.425 90.3625 26.909374Q90.925 28.39375 90.925 30.315624Q90.925 31.940624 90.55 33.20625Q90.175 34.45625 89.56563 35.284374Q88.97188 36.1125 88.26875 36.596874Q87.56563 37.065624 86.56563 37.315624Q85.56563 37.55 84.25313 37.55L79.09688 37.55ZM80.9875 35.8625L84.05 35.8625Q85.45625 35.8625 86.25313 35.596874Q87.06563 35.33125 87.55 34.846874Q88.22188 34.175 88.59688 33.05Q88.97188 31.909374 88.97188 30.284374Q88.97188 28.034374 88.2375 26.83125Q87.50313 25.628124 86.44063 25.221874Q85.69063 24.925 84.00313 24.925L80.9875 24.925L80.9875 35.8625ZM99.97188 34.20625L101.78438 34.440624Q101.3625 36.01875 100.19063 36.909374Q99.03438 37.784374 97.22188 37.784374Q94.95625 37.784374 93.6125 36.39375Q92.28438 34.9875 92.28438 32.45625Q92.28438 29.83125 93.62813 28.39375Q94.97188 26.940624 97.12813 26.940624Q99.20625 26.940624 100.51875 28.3625Q101.84688 29.76875 101.84688 32.346874Q101.84688 32.503124 101.83125 32.815624L94.09688 32.815624Q94.19063 34.51875 95.06563 35.425Q95.94063 36.33125 97.2375 36.33125Q98.20625 36.33125 98.87813 35.83125Q99.56563 35.315624 99.97188 34.20625ZM94.19063 31.3625L99.9875 31.3625Q99.87813 30.065624 99.33125 29.409374Q98.4875 28.39375 97.14375 28.39375Q95.94063 28.39375 95.1125 29.20625Q94.28438 30.003124 94.19063 31.3625ZM103.55 38.409374L105.25313 38.659374Q105.3625 39.45625 105.84688 39.815624Q106.50313 40.3 107.64375 40.3Q108.8625 40.3 109.51875 39.815624Q110.19063 39.33125 110.425 38.45625Q110.56563 37.909374 110.55 36.190624Q109.39375 37.55 107.675 37.55Q105.53438 37.55 104.3625 36.003124Q103.19063 34.45625 103.19063 32.3Q103.19063 30.815624 103.72188 29.565624Q104.26875 28.315624 105.28438 27.628124Q106.31563 26.940624 107.69063 26.940624Q109.51875 26.940624 110.72188 28.425L110.72188 27.175L112.33125 27.175L112.33125 36.14375Q112.33125 38.565624 111.83125 39.565624Q111.34688 40.58125 110.26875 41.159374Q109.20625 41.753124 107.64375 41.753124Q105.8 41.753124 104.64375 40.925Q103.50313 40.096874 103.55 38.409374ZM105.00313 32.175Q105.00313 34.221874 105.81563 35.159374Q106.62813 36.096874 107.84688 36.096874Q109.05 36.096874 109.8625 35.159374Q110.69063 34.221874 110.69063 32.2375Q110.69063 30.33125 109.84688 29.3625Q109.00313 28.39375 107.81563 28.39375Q106.64375 28.39375 105.81563 29.346874Q105.00313 30.3 105.00313 32.175ZM114.84688 37.55L114.84688 27.175L116.425 27.175L116.425 28.753124Q117.03438 27.64375 117.55 27.3Q118.06563 26.940624 118.675 26.940624Q119.56563 26.940624 120.4875 27.503124L119.87813 29.14375Q119.2375 28.753124 118.59688 28.753124Q118.01875 28.753124 117.55 29.1125Q117.09688 29.45625 116.89375 30.065624Q116.6125 31.003124 116.6125 32.1125L116.6125 37.55L114.84688 37.55ZM128.97188 34.20625L130.78438 34.440624Q130.3625 36.01875 129.19063 36.909374Q128.03438 37.784374 126.22188 37.784374Q123.95625 37.784374 122.6125 36.39375Q121.28438 34.9875 121.28438 32.45625Q121.28438 29.83125 122.62813 28.39375Q123.97188 26.940624 126.12813 26.940624Q128.20625 26.940624 129.51875 28.3625Q130.84688 29.76875 130.84688 32.346874Q130.84688 32.503124 130.83125 32.815624L123.09688 32.815624Q123.19063 34.51875 124.06563 35.425Q124.94063 36.33125 126.2375 36.33125Q127.20625 36.33125 127.87813 35.83125Q128.56563 35.315624 128.97188 34.20625ZM123.19063 31.3625L128.9875 31.3625Q128.87813 30.065624 128.33125 29.409374Q127.4875 28.39375 126.14375 28.39375Q124.94063 28.39375 124.1125 29.20625Q123.28438 30.003124 123.19063 31.3625ZM139.97188 34.20625L141.78438 34.440624Q141.3625 36.01875 140.19063 36.909374Q139.03438 37.784374 137.22188 37.784374Q134.95625 37.784374 133.6125 36.39375Q132.28438 34.9875 132.28438 32.45625Q132.28438 29.83125 133.62813 28.39375Q134.97188 26.940624 137.12813 26.940624Q139.20625 26.940624 140.51875 28.3625Q141.84688 29.76875 141.84688 32.346874Q141.84688 32.503124 141.83125 32.815624L134.09688 32.815624Q134.19063 34.51875 135.06563 35.425Q135.94063 36.33125 137.2375 36.33125Q138.20625 36.33125 138.87813 35.83125Q139.56563 35.315624 139.97188 34.20625ZM134.19063 31.3625L139.9875 31.3625Q139.87813 30.065624 139.33125 29.409374Q138.4875 28.39375 137.14375 28.39375Q135.94063 28.39375 135.1125 29.20625Q134.28438 30.003124 134.19063 31.3625ZM150.09688 37.55L150.09688 23.2375L155.01875 23.2375Q156.69063 23.2375 157.58125 23.440624Q158.8 23.721874 159.675 24.45625Q160.8 25.425 161.3625 26.909374Q161.925 28.39375 161.925 30.315624Q161.925 31.940624 161.55 33.20625Q161.175 34.45625 160.56563 35.284374Q159.97188 36.1125 159.26875 36.596874Q158.56563 37.065624 157.56563 37.315624Q156.56563 37.55 155.25313 37.55L150.09688 37.55ZM151.9875 35.8625L155.05 35.8625Q156.45625 35.8625 157.25313 35.596874Q158.06563 35.33125 158.55 34.846874Q159.22188 34.175 159.59688 33.05Q159.97188 31.909374 159.97188 30.284374Q159.97188 28.034374 159.2375 26.83125Q158.50313 25.628124 157.44063 25.221874Q156.69063 24.925 155.00313 24.925L151.9875 24.925L151.9875 35.8625ZM163.87813 25.253124L163.87813 23.2375L165.64375 23.2375L165.64375 25.253124L163.87813 25.253124ZM163.87813 37.55L163.87813 27.175L165.64375 27.175L165.64375 37.55L163.87813 37.55ZM167.15938 34.45625L168.90938 34.175Q169.05 35.221874 169.72188 35.784374Q170.39375 36.33125 171.59688 36.33125Q172.8 36.33125 173.37813 35.846874Q173.97188 35.346874 173.97188 34.690624Q173.97188 34.096874 173.45625 33.753124Q173.09688 33.51875 171.65938 33.159374Q169.72188 32.659374 168.97188 32.315624Q168.2375 31.95625 167.84688 31.33125Q167.45625 30.690624 167.45625 29.925Q167.45625 29.2375 167.76875 28.64375Q168.09688 28.05 168.64375 27.659374Q169.05 27.3625 169.75313 27.159374Q170.47188 26.940624 171.28438 26.940624Q172.50313 26.940624 173.425 27.3Q174.34688 27.64375 174.78438 28.253124Q175.22188 28.846874 175.39375 29.846874L173.675 30.08125Q173.55 29.284374 172.9875 28.846874Q172.425 28.39375 171.40938 28.39375Q170.19063 28.39375 169.675 28.8Q169.15938 29.190624 169.15938 29.721874Q169.15938 30.065624 169.37813 30.346874Q169.58125 30.628124 170.05 30.815624Q170.31563 30.909374 171.59688 31.253124Q173.47188 31.753124 174.20625 32.08125Q174.94063 32.39375 175.3625 33.003124Q175.78438 33.596874 175.78438 34.503124Q175.78438 35.378124 175.26875 36.159374Q174.75313 36.940624 173.78438 37.3625Q172.81563 37.784374 171.59688 37.784374Q169.58125 37.784374 168.51875 36.940624Q167.45625 36.096874 167.15938 34.45625ZM181.70625 35.971874L181.95625 37.534374Q181.22188 37.690624 180.62813 37.690624Q179.675 37.690624 179.14375 37.39375Q178.62813 37.08125 178.40938 36.596874Q178.19063 36.096874 178.19063 34.51875L178.19063 28.55L176.90938 28.55L176.90938 27.175L178.19063 27.175L178.19063 24.6125L179.94063 23.55L179.94063 27.175L181.70625 27.175L181.70625 28.55L179.94063 28.55L179.94063 34.6125Q179.94063 35.3625 180.03438 35.58125Q180.12813 35.784374 180.33125 35.925Q180.55 36.05 180.94063 36.05Q181.22188 36.05 181.70625 35.971874ZM183.84688 37.55L183.84688 27.175L185.425 27.175L185.425 28.753124Q186.03438 27.64375 186.55 27.3Q187.06563 26.940624 187.675 26.940624Q188.56563 26.940624 189.4875 27.503124L188.87813 29.14375Q188.2375 28.753124 187.59688 28.753124Q187.01875 28.753124 186.55 29.1125Q186.09688 29.45625 185.89375 30.065624Q185.6125 31.003124 185.6125 32.1125L185.6125 37.55L183.84688 37.55ZM190.87813 25.253124L190.87813 23.2375L192.64375 23.2375L192.64375 25.253124L190.87813 25.253124ZM190.87813 37.55L190.87813 27.175L192.64375 27.175L192.64375 37.55L190.87813 37.55ZM196.4875 37.55L194.8625 37.55L194.8625 23.2375L196.6125 23.2375L196.6125 28.346874Q197.7375 26.940624 199.45625 26.940624Q200.40938 26.940624 201.26875 27.33125Q202.12813 27.721874 202.675 28.425Q203.22188 29.1125 203.53438 30.096874Q203.84688 31.08125 203.84688 32.20625Q203.84688 34.878124 202.53438 36.33125Q201.22188 37.784374 199.37813 37.784374Q197.53438 37.784374 196.4875 36.253124L196.4875 37.55ZM196.47188 32.284374Q196.47188 34.14375 196.97188 34.9875Q197.81563 36.33125 199.22188 36.33125Q200.37813 36.33125 201.20625 35.33125Q202.05 34.33125 202.05 32.346874Q202.05 30.315624 201.2375 29.3625Q200.44063 28.39375 199.3 28.39375Q198.14375 28.39375 197.3 29.39375Q196.47188 30.39375 196.47188 32.284374ZM212.65938 37.55L212.65938 36.01875Q211.45625 37.784374 209.37813 37.784374Q208.45625 37.784374 207.65938 37.440624Q206.8625 37.08125 206.47188 36.55Q206.09688 36.01875 205.94063 35.2375Q205.83125 34.721874 205.83125 33.596874L205.83125 27.175L207.58125 27.175L207.58125 32.925Q207.58125 34.3 207.69063 34.784374Q207.8625 35.471874 208.39375 35.878124Q208.94063 36.26875 209.72188 36.26875Q210.51875 36.26875 211.20625 35.8625Q211.90938 35.45625 212.19063 34.76875Q212.4875 34.065624 212.4875 32.7375L212.4875 27.175L214.2375 27.175L214.2375 37.55L212.65938 37.55ZM219.70625 35.971874L219.95625 37.534374Q219.22188 37.690624 218.62813 37.690624Q217.675 37.690624 217.14375 37.39375Q216.62813 37.08125 216.40938 36.596874Q216.19063 36.096874 216.19063 34.51875L216.19063 28.55L214.90938 28.55L214.90938 27.175L216.19063 27.175L216.19063 24.6125L217.94063 23.55L217.94063 27.175L219.70625 27.175L219.70625 28.55L217.94063 28.55L217.94063 34.6125Q217.94063 35.3625 218.03438 35.58125Q218.12813 35.784374 218.33125 35.925Q218.55 36.05 218.94063 36.05Q219.22188 36.05 219.70625 35.971874ZM221.87813 25.253124L221.87813 23.2375L223.64375 23.2375L223.64375 25.253124L221.87813 25.253124ZM221.87813 37.55L221.87813 27.175L223.64375 27.175L223.64375 37.55L221.87813 37.55ZM225.22188 32.3625Q225.22188 29.4875 226.81563 28.096874Q228.15938 26.940624 230.08125 26.940624Q232.22188 26.940624 233.56563 28.346874Q234.925 29.753124 234.925 32.221874Q234.925 34.221874 234.33125 35.378124Q233.7375 36.51875 232.58125 37.159374Q231.44063 37.784374 230.08125 37.784374Q227.89375 37.784374 226.55 36.39375Q225.22188 34.9875 225.22188 32.3625ZM227.01875 32.3625Q227.01875 34.3625 227.87813 35.346874Q228.75313 36.33125 230.08125 36.33125Q231.39375 36.33125 232.25313 35.346874Q233.12813 34.346874 233.12813 32.3Q233.12813 30.378124 232.25313 29.39375Q231.37813 28.39375 230.08125 28.39375Q228.75313 28.39375 227.87813 29.39375Q227.01875 30.378124 227.01875 32.3625ZM236.8625 37.55L236.8625 27.175L238.45625 27.175L238.45625 28.659374Q239.59688 26.940624 241.75313 26.940624Q242.69063 26.940624 243.47188 27.284374Q244.26875 27.6125 244.65938 28.159374Q245.05 28.70625 245.20625 29.45625Q245.3 29.95625 245.3 31.175L245.3 37.55L243.53438 37.55L243.53438 31.2375Q243.53438 30.159374 243.33125 29.628124Q243.12813 29.096874 242.59688 28.784374Q242.08125 28.471874 241.37813 28.471874Q240.25313 28.471874 239.44063 29.190624Q238.62813 29.89375 238.62813 31.878124L238.62813 37.55L236.8625 37.55Z" fill-rule="nonzero"/></svg>